<?xml version="1.0" encoding="UTF-8" standalone="no"?>
<!-- Created with Inkscape (http://www.inkscape.org/) -->

<svg
   width="460mm"
   height="310mm"
   viewBox="0 0 460 309.99999"
   version="1.1"
   id="svg1"
   inkscape:version="1.4.1 (93de688d07, 2025-03-30)"
   sodipodi:docname="layout-simple.svg"
   inkscape:export-filename="layout-1.pdf"
   inkscape:export-xdpi="96"
   inkscape:export-ydpi="96"
   xmlns:inkscape="http://www.inkscape.org/namespaces/inkscape"
   xmlns:sodipodi="http://sodipodi.sourceforge.net/DTD/sodipodi-0.dtd"
   xmlns:xlink="http://www.w3.org/1999/xlink"
   xmlns="http://www.w3.org/2000/svg"
   xmlns:svg="http://www.w3.org/2000/svg">
  <sodipodi:namedview
     id="namedview1"
     pagecolor="#ffffff"
     bordercolor="#000000"
     borderopacity="0.25"
     inkscape:showpageshadow="2"
     inkscape:pageopacity="0.0"
     inkscape:pagecheckerboard="0"
     inkscape:deskcolor="#d1d1d1"
     inkscape:document-units="mm"
     inkscape:zoom="0.51993186"
     inkscape:cx="670.28014"
     inkscape:cy="436.59567"
     inkscape:window-width="1896"
     inkscape:window-height="1032"
     inkscape:window-x="0"
     inkscape:window-y="0"
     inkscape:window-maximized="1"
     inkscape:current-layer="layer2" />
  <defs
     id="defs1">
    <rect
       x="-869.34469"
       y="584.692"
       width="538.53211"
       height="607.77195"
       id="rect13" />
    <rect
       x="1103.9908"
       y="1069.3708"
       width="780.87152"
       height="142.32634"
       id="rect10" />
    <rect
       x="1334.7903"
       y="1280.9371"
       width="423.13239"
       height="353.89252"
       id="rect9" />
    <rect
       x="1465.5767"
       y="1427.1101"
       width="323.11926"
       height="180.79292"
       id="rect8" />
    <rect
       x="1388.6436"
       y="1280.9371"
       width="319.27261"
       height="388.51245"
       id="rect6" />
    <rect
       x="1527.1232"
       y="1100.1442"
       width="1146.3041"
       height="496.21887"
       id="rect3" />
    <linearGradient
       id="swatch1"
       inkscape:swatch="solid">
      <stop
         style="stop-color:#28220b;stop-opacity:1;"
         offset="0"
         id="stop1" />
    </linearGradient>
  </defs>
  <g
     inkscape:groupmode="layer"
     id="layer3"
     inkscape:label="cut-holes"
     style="display:inline">
    <circle
       style="display:inline;fill:none;stroke:#1a1a1a;stroke-width:0.600001;stroke-linejoin:round;stroke-dasharray:none"
       id="path1"
       cx="23.915756"
       cy="29.513445"
       r="2.875"
       transform="translate(-4.9999998,-4.9999998)" />
    <use
       x="0"
       y="0"
       xlink:href="#path1"
       id="use4"
       transform="translate(-5.0888077,140.95998)"
       style="display:inline" />
    <use
       x="0"
       y="0"
       xlink:href="#use4"
       id="use6"
       transform="translate(151.13759,27.988443)"
       style="display:inline" />
    <use
       x="0"
       y="0"
       xlink:href="#use6"
       id="use8"
       transform="translate(-19.33747,-126.71132)"
       style="display:inline" />
    <use
       x="0"
       y="0"
       xlink:href="#use8"
       id="use10"
       transform="translate(-0.5088808,-49.361437)"
       style="display:inline" />
    <use
       x="0"
       y="0"
       xlink:href="#use10"
       id="use12"
       transform="translate(99.74063,75.823236)"
       style="display:inline" />
  </g>
  <g
     inkscape:label="cut"
     inkscape:groupmode="layer"
     id="layer1"
     transform="translate(-27.785669,62.564785)"
     style="display:inline">
    <path
       id="rect5-5-3-0"
       style="fill:none;stroke:#000000;stroke-width:0.799999;stroke-linejoin:round"
       d="m 264.422,23.798807 h 215.1 V 238.89881 h -215.1 z" />
    <path
       id="rect5-5-3-12"
       style="display:inline;fill:none;stroke:#000000;stroke-width:0.799998;stroke-linejoin:round"
       d="M 32.52166,95.433241 H 171.42167 V 234.33323 H 32.52166 Z" />
    <rect
       style="display:inline;fill:none;stroke:#000000;stroke-width:0.799996;stroke-linejoin:round;stroke-dasharray:none;stroke-dashoffset:0;stroke-opacity:1"
       id="rect2-2"
       width="37.299999"
       height="316.70001"
       x="402.95224"
       y="-612.55695"
       transform="rotate(90,162.33297,-293.62421)" />
    <path
       id="rect5"
       style="display:inline;fill:none;stroke:#000000;stroke-width:0.799998;stroke-linejoin:round"
       transform="translate(-86.000846,72.769955)"
       d="m 270.23282,50.616661 h 62.7 v 62.700009 h -62.7 z" />
    <rect
       style="display:inline;fill:none;stroke:#000000;stroke-width:0.799998;stroke-linejoin:round;stroke-dasharray:none;stroke-dashoffset:0;stroke-opacity:1"
       id="rect5-5-3-1"
       width="88.099998"
       height="88.099998"
       x="39.038509"
       y="45.21656"
       transform="translate(126.20243,-48.852559)" />
    <path
       id="rect5-5-3"
       style="display:inline;fill:none;stroke:#000000;stroke-width:0.799998;stroke-linejoin:round"
       d="m 148.14547,52.696231 h 113.5 V 166.19622 h -113.5 z"
       transform="translate(-111.95377,-98.722873)" />
  </g>
  <g
     inkscape:groupmode="layer"
     id="layer2"
     inkscape:label="engrave"
     style="display:inline"
     transform="translate(-4.9999999,-4.9999997)">
    <text
       xml:space="preserve"
       transform="scale(0.26458333)"
       id="text10"
       style="font-style:normal;font-variant:normal;font-weight:600;font-stretch:normal;font-size:85.3333px;font-family:'URW Bookman';-inkscape-font-specification:'URW Bookman Semi-Bold';text-align:center;writing-mode:lr-tb;direction:ltr;white-space:pre;shape-inside:url(#rect10);display:inline;opacity:1;fill:#000000;stroke:#1a1a1a;stroke-width:0.755906;stroke-linejoin:round" />
    <text
       xml:space="preserve"
       transform="matrix(0.26458333,0,0,0.26458333,4.9999999,4.9999997)"
       id="text13"
       style="font-weight:600;font-size:48px;font-family:'URW Bookman';-inkscape-font-specification:'URW Bookman Semi-Bold';text-align:center;writing-mode:lr-tb;direction:ltr;white-space:pre;shape-inside:url(#rect13);display:inline;fill:#000000;stroke:#1a1a1a;stroke-width:1.13386;stroke-linejoin:round;stroke-dasharray:none" />
    <path
       d="m 93.441382,140.45336 h -1.0287 c -0.1778,0.4318 -0.3048,0.508 -0.8128,0.5334 l -1.2954,0.0127 h -3.0861 v 4.7625 c 0.7493,0.2032 0.7747,0.2032 1.0033,0.2794 0.3683,-0.7112 1.0795,-1.1938 1.7653,-1.1938 0.9017,0 1.5748,0.8255 1.5748,1.9177 0,1.143 -0.6985,1.9431 -1.7018,1.9431 -0.508,0 -0.8636,-0.1905 -0.8636,-0.4572 0,-0.0508 0,-0.1016 0.0127,-0.1524 0.0508,-0.2794 0.0508,-0.2794 0.0508,-0.3683 0,-0.6096 -0.4953,-1.0795 -1.1557,-1.0795 -0.6731,0 -1.1176,0.4572 -1.1176,1.1557 0,1.1811 1.3843,2.0066 3.3655,2.0066 2.4003,0 3.9878,-1.2827 3.9878,-3.2258 0,-1.7526 -1.3589,-2.9718 -3.3401,-2.9718 -0.9144,0 -1.7018,0.2286 -2.3368,0.6731 v -1.5113 h 4.5974 z m 8.813798,0.5461 h -0.4318 c -1.0414,0.2286 -1.3208,0.2667 -1.854198,0.2667 -0.0381,0 -0.0889,0 -0.1778,-0.0127 v 0.6731 h 0.1524 c 0.812798,0.0508 0.876298,0.0762 0.850898,0.4953 v 2.5273 c 0,0.4191 -0.0508,0.4699 -0.762,0.5207 l -0.279398,0.0127 v 0.6985 h 3.555998 v -0.6985 l -0.254,-0.0127 c -0.7366,-0.0635 -0.8128,-0.1143 -0.8001,-0.5207 z m 6.096,0 h -1.0287 l -5.3975,8.6487 h 0.9906 z m 3.0226,6.9469 -0.7239,-0.1778 c -0.3556,0.7112 -0.4318,0.762 -1.3843,0.7493 h -0.9398 c 1.8669,-0.9652 2.6289,-1.7145 2.6289,-2.5654 0,-0.9652 -0.889,-1.5875 -2.2352,-1.5875 -1.2827,0 -2.1971,0.635 -2.1971,1.5367 0,0.4318 0.3048,0.7493 0.7366,0.7493 0.381,0 0.6985,-0.2794 0.6985,-0.6223 0,-0.127 -0.0381,-0.2413 -0.1397,-0.381 -0.0508,-0.0762 -0.0635,-0.1143 -0.0635,-0.1651 0,-0.1905 0.381,-0.381 0.762,-0.381 0.508,0 0.8255,0.2667 0.8255,0.7112 0,0.5207 -0.3429,1.1049 -0.9525,1.651 -0.4699,0.4064 -0.6731,0.5461 -1.8669,1.2827 l 0.1397,0.9017 h 4.2037 z"
       id="text11-9"
       style="font-weight:600;font-size:12.7px;font-family:'URW Bookman';-inkscape-font-specification:'URW Bookman Semi-Bold';text-align:center;text-anchor:middle;display:inline;stroke:#1a1a1a;stroke-width:0.3;stroke-linejoin:round"
       aria-label="5 ½"
       transform="translate(-22.785669,67.564785)" />
    <path
       d="m 93.441382,167.7107 h -1.0287 c -0.1778,0.4318 -0.3048,0.508 -0.8128,0.5334 l -1.2954,0.0127 h -3.0861 v 4.7625 c 0.7493,0.2032 0.7747,0.2032 1.0033,0.2794 0.3683,-0.7112 1.0795,-1.1938 1.7653,-1.1938 0.9017,0 1.5748,0.8255 1.5748,1.9177 0,1.143 -0.6985,1.9431 -1.7018,1.9431 -0.508,0 -0.8636,-0.1905 -0.8636,-0.4572 0,-0.0508 0,-0.1016 0.0127,-0.1524 0.0508,-0.2794 0.0508,-0.2794 0.0508,-0.3683 0,-0.6096 -0.4953,-1.0795 -1.1557,-1.0795 -0.6731,0 -1.1176,0.4572 -1.1176,1.1557 0,1.1811 1.3843,2.0066 3.3655,2.0066 2.4003,0 3.9878,-1.2827 3.9878,-3.2258 0,-1.7526 -1.3589,-2.9718 -3.3401,-2.9718 -0.9144,0 -1.7018,0.2286 -2.3368,0.6731 v -1.5113 h 4.5974 z m 8.813798,0.5461 h -0.4318 c -1.0414,0.2286 -1.3208,0.2667 -1.854198,0.2667 -0.0381,0 -0.0889,0 -0.1778,-0.0127 v 0.6731 h 0.1524 c 0.812798,0.0508 0.876298,0.0762 0.850898,0.4953 v 2.5273 c 0,0.4191 -0.0508,0.4699 -0.762,0.5207 l -0.279398,0.0127 v 0.6985 h 3.555998 v -0.6985 l -0.254,-0.0127 c -0.7366,-0.0635 -0.8128,-0.1143 -0.8001,-0.5207 z m 6.096,0 h -1.0287 l -5.3975,8.6487 h 0.9906 z m 3.0226,6.9469 -0.7239,-0.1778 c -0.3556,0.7112 -0.4318,0.762 -1.3843,0.7493 h -0.9398 c 1.8669,-0.9652 2.6289,-1.7145 2.6289,-2.5654 0,-0.9652 -0.889,-1.5875 -2.2352,-1.5875 -1.2827,0 -2.1971,0.635 -2.1971,1.5367 0,0.4318 0.3048,0.7493 0.7366,0.7493 0.381,0 0.6985,-0.2794 0.6985,-0.6223 0,-0.127 -0.0381,-0.2413 -0.1397,-0.381 -0.0508,-0.0762 -0.0635,-0.1143 -0.0635,-0.1651 0,-0.1905 0.381,-0.381 0.762,-0.381 0.508,0 0.8255,0.2667 0.8255,0.7112 0,0.5207 -0.3429,1.1049 -0.9525,1.651 -0.4699,0.4064 -0.6731,0.5461 -1.8669,1.2827 l 0.1397,0.9017 h 4.2037 z"
       id="text11-0"
       style="font-weight:600;font-size:12.7px;font-family:'URW Bookman';-inkscape-font-specification:'URW Bookman Semi-Bold';text-align:center;text-anchor:middle;display:inline;stroke:#1a1a1a;stroke-width:0.3;stroke-linejoin:round"
       aria-label="5 ½"
       transform="translate(-22.785669,67.564785)" />
    <path
       d="m 102.69334,155.57429 h -3.048002 v 1.0287 c 0.3048,0.0254 0.419102,0.0762 0.419102,0.1778 0,0.1016 -0.0508,0.1905 -0.190502,0.3175 l -0.5461,0.5207 -0.4064,-0.5334 c -0.0889,-0.1143 -0.127,-0.1778 -0.127,-0.2413 0,-0.1397 0.1778,-0.2159 0.508,-0.2413 v -1.0287 h -3.6576 v 1.0287 c 0.7874,0.1016 1.0287,0.2667 1.4986,0.9779 l 0.7874,1.0668 -0.9144,0.9906 c -0.5334,0.5715 -0.8509,0.9017 -0.9271,0.9652 -0.2413,0.1651 -0.3556,0.2159 -0.7112,0.3175 v 1.0287 h 3.1115 v -1.0287 c -0.4318,-0.0381 -0.6477,-0.127 -0.6477,-0.2794 0,-0.1016 0.0381,-0.1651 0.2032,-0.3556 l 0.6096,-0.6858 0.508,0.6858 c 0.127,0.1651 0.1905,0.3048 0.1905,0.381 0,0.1143 -0.127,0.1778 -0.508,0.254 v 1.0287 h 3.937002 v -1.0287 c -0.889,-0.1905 -1.1684,-0.3429 -1.6383,-0.9398 l -1.181102,-1.524 0.762002,-0.6731 c 0.9652,-0.8763 1.2065,-1.016 1.9685,-1.1811 z"
       id="text12"
       style="font-weight:600;font-size:12.7px;font-family:'URW Bookman';-inkscape-font-specification:'URW Bookman Semi-Bold';text-align:center;text-anchor:middle;display:inline;stroke:#1a1a1a;stroke-width:0.3;stroke-linejoin:round"
       aria-label="x"
       transform="translate(-22.785669,67.564785)" />
    <path
       d="m 358.02202,103.68536 c 0.8382,-0.4699 1.2065,-1.016 1.2065,-1.7653 0,-1.2954 -1.3208,-2.171703 -3.2639,-2.171703 -1.2192,0 -2.159,0.355603 -2.8194,1.041403 -0.4191,0.4572 -0.6477,1.016 -0.6477,1.6002 0,0.8509 0.381,1.4478 1.2065,1.8669 -1.0287,0.4064 -1.5494,1.0668 -1.5494,1.9812 0,1.5113 1.4097,2.4892 3.5941,2.4892 2.4003,0 3.9878,-1.143 3.9878,-2.8829 0,-1.0287 -0.5207,-1.6764 -1.7145,-2.159 z m -2.1717,-0.8001 c -0.6477,-0.2794 -0.8382,-0.381 -1.0287,-0.5461 -0.1651,-0.1524 -0.2667,-0.3556 -0.2667,-0.5334 0,-0.5334 0.5715,-0.889 1.397,-0.889 0.9652,0 1.5875,0.4318 1.5875,1.0922 0,0.4699 -0.2159,0.7747 -0.889,1.2192 z m 0.4699,2.4003 c 0.9398,0.3302 1.3589,0.6985 1.3589,1.1684 0,0.6858 -0.7112,1.1049 -1.8796,1.1049 -1.2319,0 -1.9558,-0.4953 -1.9558,-1.3462 0,-0.6731 0.3175,-1.0668 1.1176,-1.4097 z m 11.4046,-5.372103 h -0.4318 c -1.0414,0.228603 -1.3208,0.266703 -1.8542,0.266703 -0.0381,0 -0.0889,0 -0.1778,-0.0127 v 0.6731 h 0.1524 c 0.8128,0.0508 0.8763,0.0762 0.8509,0.4953 v 2.5273 c 0,0.4191 -0.0508,0.4699 -0.762,0.5207 l -0.2794,0.0127 v 0.6985 h 3.556 v -0.6985 l -0.254,-0.0127 c -0.7366,-0.0635 -0.8128,-0.1143 -0.8001,-0.5207 z m 6.096,0 h -1.0287 l -5.3975,8.648703 h 0.9906 z m 3.0226,6.946903 -0.7239,-0.1778 c -0.3556,0.7112 -0.4318,0.762 -1.3843,0.7493 h -0.9398 c 1.8669,-0.9652 2.6289,-1.7145 2.6289,-2.5654 0,-0.9652 -0.889,-1.5875 -2.2352,-1.5875 -1.2827,0 -2.1971,0.635 -2.1971,1.5367 0,0.4318 0.3048,0.7493 0.7366,0.7493 0.381,0 0.6985,-0.2794 0.6985,-0.6223 0,-0.127 -0.0381,-0.2413 -0.1397,-0.381 -0.0508,-0.0762 -0.0635,-0.1143 -0.0635,-0.1651 0,-0.1905 0.381,-0.381 0.762,-0.381 0.508,0 0.8255,0.2667 0.8255,0.7112 0,0.5207 -0.3429,1.1049 -0.9525,1.651 -0.4699,0.4064 -0.6731,0.5461 -1.8669,1.2827 l 0.1397,0.9017 h 4.2037 z"
       id="text11-9-3"
       style="font-weight:600;font-size:12.7px;font-family:'URW Bookman';-inkscape-font-specification:'URW Bookman Semi-Bold';text-align:center;text-anchor:middle;display:inline;stroke:#1a1a1a;stroke-width:0.3;stroke-linejoin:round"
       aria-label="8 ½"
       transform="translate(-22.785669,67.564785)" />
    <path
       d="m 358.02202,130.94269 c 0.8382,-0.4699 1.2065,-1.016 1.2065,-1.7653 0,-1.2954 -1.3208,-2.1717 -3.2639,-2.1717 -1.2192,0 -2.159,0.3556 -2.8194,1.0414 -0.4191,0.4572 -0.6477,1.016 -0.6477,1.6002 0,0.8509 0.381,1.4478 1.2065,1.8669 -1.0287,0.4064 -1.5494,1.0668 -1.5494,1.9812 0,1.5113 1.4097,2.4892 3.5941,2.4892 2.4003,0 3.9878,-1.143 3.9878,-2.8829 0,-1.0287 -0.5207,-1.6764 -1.7145,-2.159 z m -2.1717,-0.8001 c -0.6477,-0.2794 -0.8382,-0.381 -1.0287,-0.5461 -0.1651,-0.1524 -0.2667,-0.3556 -0.2667,-0.5334 0,-0.5334 0.5715,-0.889 1.397,-0.889 0.9652,0 1.5875,0.4318 1.5875,1.0922 0,0.4699 -0.2159,0.7747 -0.889,1.2192 z m 0.4699,2.4003 c 0.9398,0.3302 1.3589,0.6985 1.3589,1.1684 0,0.6858 -0.7112,1.1049 -1.8796,1.1049 -1.2319,0 -1.9558,-0.4953 -1.9558,-1.3462 0,-0.6731 0.3175,-1.0668 1.1176,-1.4097 z m 11.4046,-5.3721 h -0.4318 c -1.0414,0.2286 -1.3208,0.2667 -1.8542,0.2667 -0.0381,0 -0.0889,0 -0.1778,-0.0127 v 0.6731 h 0.1524 c 0.8128,0.0508 0.8763,0.0762 0.8509,0.4953 v 2.5273 c 0,0.4191 -0.0508,0.4699 -0.762,0.5207 l -0.2794,0.0127 v 0.6985 h 3.556 v -0.6985 l -0.254,-0.0127 c -0.7366,-0.0635 -0.8128,-0.1143 -0.8001,-0.5207 z m 6.096,0 h -1.0287 l -5.3975,8.6487 h 0.9906 z m 3.0226,6.9469 -0.7239,-0.1778 c -0.3556,0.7112 -0.4318,0.762 -1.3843,0.7493 h -0.9398 c 1.8669,-0.9652 2.6289,-1.7145 2.6289,-2.5654 0,-0.9652 -0.889,-1.5875 -2.2352,-1.5875 -1.2827,0 -2.1971,0.635 -2.1971,1.5367 0,0.4318 0.3048,0.7493 0.7366,0.7493 0.381,0 0.6985,-0.2794 0.6985,-0.6223 0,-0.127 -0.0381,-0.2413 -0.1397,-0.381 -0.0508,-0.0762 -0.0635,-0.1143 -0.0635,-0.1651 0,-0.1905 0.381,-0.381 0.762,-0.381 0.508,0 0.8255,0.2667 0.8255,0.7112 0,0.5207 -0.3429,1.1049 -0.9525,1.651 -0.4699,0.4064 -0.6731,0.5461 -1.8669,1.2827 l 0.1397,0.9017 h 4.2037 z"
       id="text11-0-0"
       style="font-weight:600;font-size:12.7px;font-family:'URW Bookman';-inkscape-font-specification:'URW Bookman Semi-Bold';text-align:center;text-anchor:middle;display:inline;stroke:#1a1a1a;stroke-width:0.3;stroke-linejoin:round"
       aria-label="8 ½"
       transform="translate(-22.785669,67.564785)" />
    <path
       d="m 368.16298,114.48829 h -3.048 v 1.0287 c 0.3048,0.0254 0.4191,0.0762 0.4191,0.1778 0,0.1016 -0.0508,0.1905 -0.1905,0.3175 l -0.5461,0.5207 -0.4064,-0.5334 c -0.0889,-0.1143 -0.127,-0.1778 -0.127,-0.2413 0,-0.1397 0.1778,-0.2159 0.508,-0.2413 v -1.0287 h -3.6576 v 1.0287 c 0.7874,0.1016 1.0287,0.2667 1.4986,0.9779 l 0.7874,1.0668 -0.9144,0.9906 c -0.5334,0.5715 -0.8509,0.9017 -0.9271,0.9652 -0.2413,0.1651 -0.3556,0.2159 -0.7112,0.3175 v 1.0287 h 3.1115 v -1.0287 c -0.4318,-0.0381 -0.6477,-0.127 -0.6477,-0.2794 0,-0.1016 0.0381,-0.1651 0.2032,-0.3556 l 0.6096,-0.6858 0.508,0.6858 c 0.127,0.1651 0.1905,0.3048 0.1905,0.381 0,0.1143 -0.127,0.1778 -0.508,0.254 v 1.0287 h 3.937 v -1.0287 c -0.889,-0.1905 -1.1684,-0.3429 -1.6383,-0.9398 l -1.1811,-1.524 0.762,-0.6731 c 0.9652,-0.8763 1.2065,-1.016 1.9685,-1.1811 z"
       id="text12-1"
       style="font-weight:600;font-size:12.7px;font-family:'URW Bookman';-inkscape-font-specification:'URW Bookman Semi-Bold';text-align:center;text-anchor:middle;display:inline;stroke:#1a1a1a;stroke-width:0.3;stroke-linejoin:round"
       aria-label="x"
       transform="translate(-22.785669,67.564785)" />
    <g
       id="g2"
       transform="translate(-89.990888,-77.559673)"
       style="display:inline">
      <path
         d="m 154.04591,138.19766 h -1.21508 l -0.23023,0.30265 -1.95692,2.78687 -1.8674,2.4464 -0.14069,0.18916 0.19186,0.51702 h 4.00338 v 0.52963 c 0.0128,1.05927 -0.1407,1.32408 -0.81858,1.41236 l -0.42209,0.0252 v 0.3783 h 3.69642 v -0.3783 l -0.42208,-0.0252 c -0.67789,-0.0883 -0.83138,-0.35309 -0.81859,-1.41236 v -0.52963 h 1.66275 l 0.28139,-0.71879 h -1.94414 z m -1.21508,5.52331 h -3.28712 c 0.064,-0.10088 0.1279,-0.18915 0.20464,-0.27743 l 1.31741,-1.76544 c 0.60115,-0.80706 1.1895,-1.61411 1.76507,-2.40856 z m 10.38578,-5.52331 h -0.31976 c -0.5244,0.1135 -0.69068,0.13872 -1.50926,0.22699 v 0.32787 l 0.37092,0.0126 c 0.53719,0.0252 0.60115,0.10088 0.60115,0.64312 v 2.83731 c 0.0128,0.59269 -0.064,0.68096 -0.6651,0.75662 l -0.33255,0.0126 v 0.32787 h 2.83946 v -0.32787 l -0.31976,-0.0126 c -0.57557,-0.0378 -0.67789,-0.15132 -0.6651,-0.7314 z m 6.12657,0 h -0.75463 l -5.93472,8.5876 h 0.74185 z m 2.31506,7.1122 -0.3965,-0.0883 -0.10233,0.21437 c -0.23022,0.52964 -0.43487,0.64314 -1.11276,0.64314 h -1.70112 c 0.85696,-0.51703 1.09997,-0.66836 1.4709,-0.95839 0.94648,-0.74401 1.40693,-1.42496 1.40693,-2.09331 0,-0.87011 -0.83137,-1.48801 -1.99529,-1.48801 -1.08717,0 -1.9825,0.65573 -1.9825,1.45018 0,0.37831 0.25581,0.66835 0.58836,0.66835 0.2686,0 0.5116,-0.21438 0.5116,-0.44136 0,-0.0883 -0.0512,-0.20177 -0.1279,-0.27743 -0.15347,-0.16393 -0.16626,-0.18916 -0.16626,-0.31526 0,-0.31525 0.52439,-0.6179 1.07438,-0.6179 0.63951,0 1.04881,0.3657 1.04881,0.94577 0,0.65574 -0.51162,1.45018 -1.43252,2.21942 -0.43488,0.3657 -0.62672,0.4918 -1.52205,1.00882 v 0.60529 h 4.02896 z"
         id="path56"
         style="font-size:12.7px;font-family:'URW Bookman';-inkscape-font-specification:'URW Bookman, Normal';text-align:center;text-anchor:middle;fill:#1a1a1a;stroke:#000000;stroke-width:0.799998;stroke-linejoin:round" />
      <path
         d="m 160.6969,155.38753 1.11276,-1.17276 c 0.70347,-0.68096 1.0616,-0.88272 1.91856,-1.04665 v -0.37831 h -2.69877 v 0.37831 c 0.46046,0.0504 0.57557,0.11349 0.57557,0.32786 0,0.10089 -0.0384,0.20177 -0.12791,0.30265 l -1.08718,1.21059 -1.01043,-1.21059 c -0.0895,-0.1261 -0.15349,-0.2396 -0.15349,-0.31526 0,-0.17654 0.15349,-0.26481 0.52441,-0.30264 l 0.1279,-0.0126 v -0.37831 h -3.17201 v 0.37831 c 0.61394,0.0883 0.85695,0.23959 1.30462,0.76922 l 1.49647,1.85371 -1.62438,1.80327 c -0.57556,0.64313 -0.90811,0.84489 -1.52205,0.93316 v 0.37831 h 2.86504 v -0.37831 c -0.44766,-0.0757 -0.54998,-0.10088 -0.63952,-0.15132 -0.1279,-0.0757 -0.21743,-0.20176 -0.21743,-0.32787 0,-0.1261 0.0895,-0.29003 0.23022,-0.45397 l 1.27904,-1.41235 1.15113,1.5889 c 0.0767,0.11349 0.12791,0.23959 0.12791,0.34048 0,0.23959 -0.15349,0.32786 -0.76743,0.41613 v 0.37831 h 3.54293 v -0.37831 c -0.69068,-0.11349 -0.9209,-0.26481 -1.48368,-0.93316 z"
         id="path57"
         style="font-size:12.7px;font-family:'URW Bookman';-inkscape-font-specification:'URW Bookman, Normal';text-align:center;text-anchor:middle;fill:#1a1a1a;stroke:#000000;stroke-width:0.799998;stroke-linejoin:round" />
      <path
         d="m 154.04591,164.91036 h -1.21508 l -0.23023,0.30265 -1.95692,2.78687 -1.8674,2.44639 -0.14069,0.18916 0.19186,0.51702 h 4.00338 v 0.52963 c 0.0128,1.05927 -0.1407,1.32408 -0.81858,1.41235 l -0.42209,0.0252 v 0.37831 h 3.69642 v -0.37831 l -0.42208,-0.0252 c -0.67789,-0.0883 -0.83138,-0.35308 -0.81859,-1.41235 v -0.52963 h 1.66275 l 0.28139,-0.71879 h -1.94414 z m -1.21508,5.5233 h -3.28712 c 0.064,-0.10088 0.1279,-0.18915 0.20464,-0.27742 l 1.31741,-1.76544 c 0.60115,-0.80706 1.1895,-1.61412 1.76507,-2.40856 z m 10.38578,-5.5233 h -0.31976 c -0.5244,0.11349 -0.69068,0.13872 -1.50926,0.22699 v 0.32786 l 0.37092,0.0126 c 0.53719,0.0252 0.60115,0.10089 0.60115,0.64313 v 2.83731 c 0.0128,0.59268 -0.064,0.68096 -0.6651,0.75662 l -0.33255,0.0126 v 0.32787 h 2.83946 v -0.32787 l -0.31976,-0.0126 c -0.57557,-0.0378 -0.67789,-0.15132 -0.6651,-0.7314 z m 6.12657,0 h -0.75463 l -5.93472,8.5876 h 0.74185 z m 2.31506,7.1122 -0.3965,-0.0883 -0.10233,0.21437 c -0.23022,0.52963 -0.43487,0.64313 -1.11276,0.64313 h -1.70112 c 0.85696,-0.51702 1.09997,-0.66835 1.4709,-0.95838 0.94648,-0.74401 1.40693,-1.42497 1.40693,-2.09331 0,-0.87011 -0.83137,-1.48801 -1.99529,-1.48801 -1.08717,0 -1.9825,0.65573 -1.9825,1.45018 0,0.37831 0.25581,0.66834 0.58836,0.66834 0.2686,0 0.5116,-0.21437 0.5116,-0.44136 0,-0.0883 -0.0512,-0.20176 -0.1279,-0.27742 -0.15347,-0.16394 -0.16626,-0.18916 -0.16626,-0.31526 0,-0.31526 0.52439,-0.6179 1.07438,-0.6179 0.63951,0 1.04881,0.36569 1.04881,0.94577 0,0.65573 -0.51162,1.45018 -1.43252,2.21941 -0.43488,0.36569 -0.62672,0.4918 -1.52205,1.00882 v 0.60529 h 4.02896 z"
         id="path58"
         style="font-size:12.7px;font-family:'URW Bookman';-inkscape-font-specification:'URW Bookman, Normal';text-align:center;text-anchor:middle;fill:#1a1a1a;stroke:#000000;stroke-width:0.799998;stroke-linejoin:round" />
    </g>
    <g
       id="g1"
       transform="translate(131.20245,-41.773897)"
       style="display:inline">
      <path
         d="m 43.149208,137.98423 c 0.51161,-0.0504 0.72905,-0.0631 0.89532,-0.0631 0.57557,0 1.18951,0.17655 1.53485,0.44136 0.40929,0.31526 0.66509,0.93317 0.66509,1.5889 0,1.28625 -0.80579,2.04287 -2.18715,2.04287 -0.56277,0 -1.04881,-0.1135 -1.40694,-0.34048 -0.24301,-0.15133 -0.43487,-0.42875 -0.43487,-0.63052 0,-0.0378 0.0128,-0.0883 0.0256,-0.13871 0.0895,-0.27743 0.0895,-0.27743 0.0895,-0.42875 0,-0.41614 -0.29417,-0.70617 -0.71626,-0.70617 -0.43487,0 -0.78021,0.39091 -0.78021,0.8701 0,0.46659 0.30697,0.94578 0.8058,1.29886 0.63951,0.44136 1.39414,0.64313 2.36621,0.64313 2.14878,0 3.68363,-1.0971 3.68363,-2.63555 0,-0.74401 -0.39651,-1.41235 -1.04881,-1.79066 -0.4093,-0.2396 -0.72905,-0.35309 -1.52206,-0.50441 0.72905,-0.16394 1.04881,-0.29004 1.39415,-0.55485 0.44766,-0.34048 0.72905,-0.87011 0.72905,-1.37452 0,-1.18537 -1.29182,-2.05548 -3.05689,-2.05548 -0.76742,0 -1.40694,0.16393 -1.91856,0.51702 -0.60114,0.39092 -0.95927,0.97099 -0.95927,1.52585 0,0.46658 0.30696,0.80705 0.74184,0.80705 0.38371,0 0.70347,-0.27742 0.70347,-0.60529 0,-0.0883 -0.0256,-0.18915 -0.064,-0.30265 -0.15348,-0.34047 -0.15348,-0.34047 -0.15348,-0.44136 0,-0.51702 0.70347,-0.93316 1.57321,-0.93316 1.07439,0 1.75228,0.61791 1.75228,1.57629 0,0.44136 -0.19185,0.90794 -0.47324,1.14753 -0.33255,0.31526 -0.97207,0.50441 -1.62438,0.50441 -0.14069,0 -0.30696,-0.0126 -0.61393,-0.0378 z m 12.07411,-4.17401 h -0.31976 c -0.52441,0.1135 -0.69068,0.13872 -1.50926,0.22699 v 0.32787 l 0.37092,0.0126 c 0.53719,0.0252 0.60114,0.10088 0.60114,0.64312 v 2.83731 c 0.0128,0.59269 -0.064,0.68096 -0.6651,0.75662 l -0.33255,0.0126 v 0.32787 h 2.83946 v -0.32787 l -0.31975,-0.0126 c -0.57557,-0.0378 -0.67789,-0.15132 -0.6651,-0.7314 z m 6.12658,0 h -0.75463 l -5.93473,8.5876 h 0.74184 z m 2.31505,7.1122 -0.3965,-0.0883 -0.10232,0.21437 c -0.23023,0.52964 -0.43487,0.64313 -1.11276,0.64313 h -1.70112 c 0.85695,-0.51702 1.09997,-0.66835 1.47089,-0.95838 0.94649,-0.74401 1.40694,-1.42496 1.40694,-2.09331 0,-0.87011 -0.83137,-1.48801 -1.99529,-1.48801 -1.08718,0 -1.98251,0.65573 -1.98251,1.45018 0,0.37831 0.25581,0.66834 0.58836,0.66834 0.26859,0 0.51161,-0.21437 0.51161,-0.44135 0,-0.0883 -0.0512,-0.20177 -0.1279,-0.27743 -0.15349,-0.16393 -0.16628,-0.18916 -0.16628,-0.31526 0,-0.31526 0.52441,-0.6179 1.07439,-0.6179 0.63952,0 1.04881,0.3657 1.04881,0.94577 0,0.65573 -0.51161,1.45018 -1.43252,2.21941 -0.43487,0.3657 -0.62673,0.4918 -1.52205,1.00882 v 0.60529 h 4.02896 z"
         id="path62"
         style="font-size:12.7px;font-family:'URW Bookman';-inkscape-font-specification:'URW Bookman, Normal';text-align:center;text-anchor:middle;fill:#1a1a1a;stroke:#000000;stroke-width:0.799998;stroke-linejoin:round" />
      <path
         d="m 52.799523,151.32793 1.11276,-1.17276 c 0.70347,-0.68096 1.0616,-0.88272 1.91855,-1.04665 v -0.37831 h -2.69876 v 0.37831 c 0.46045,0.0504 0.57557,0.11349 0.57557,0.32786 0,0.10089 -0.0384,0.20177 -0.12791,0.30265 l -1.08718,1.21059 -1.01044,-1.21059 c -0.0895,-0.1261 -0.15348,-0.2396 -0.15348,-0.31526 0,-0.17654 0.15348,-0.26481 0.5244,-0.30264 l 0.12791,-0.0126 v -0.37831 h -3.17201 v 0.37831 c 0.61393,0.0883 0.85695,0.23959 1.30461,0.76922 l 1.49648,1.85371 -1.62438,1.80327 c -0.57557,0.64313 -0.90811,0.84489 -1.52205,0.93316 v 0.37831 h 2.86504 v -0.37831 c -0.44766,-0.0757 -0.54999,-0.10088 -0.63952,-0.15132 -0.1279,-0.0757 -0.21744,-0.20176 -0.21744,-0.32787 0,-0.1261 0.0895,-0.29003 0.23023,-0.45397 l 1.27904,-1.41235 1.15113,1.5889 c 0.0767,0.11349 0.1279,0.23959 0.1279,0.34048 0,0.23959 -0.15348,0.32786 -0.76742,0.41613 v 0.37831 h 3.54293 v -0.37831 c -0.69068,-0.11349 -0.92091,-0.26481 -1.48368,-0.93316 z"
         id="path63"
         style="font-size:12.7px;font-family:'URW Bookman';-inkscape-font-specification:'URW Bookman, Normal';text-align:center;text-anchor:middle;fill:#1a1a1a;stroke:#000000;stroke-width:0.799998;stroke-linejoin:round" />
      <path
         d="m 43.149208,165.35257 c 0.51161,-0.0504 0.72905,-0.063 0.89532,-0.063 0.57557,0 1.18951,0.17655 1.53485,0.44136 0.40929,0.31526 0.66509,0.93316 0.66509,1.5889 0,1.28625 -0.80579,2.04286 -2.18715,2.04286 -0.56277,0 -1.04881,-0.11349 -1.40694,-0.34047 -0.24301,-0.15133 -0.43487,-0.42875 -0.43487,-0.63052 0,-0.0378 0.0128,-0.0883 0.0256,-0.13871 0.0895,-0.27743 0.0895,-0.27743 0.0895,-0.42875 0,-0.41614 -0.29417,-0.70618 -0.71626,-0.70618 -0.43487,0 -0.78021,0.39092 -0.78021,0.87011 0,0.46658 0.30697,0.94577 0.8058,1.29886 0.63951,0.44136 1.39414,0.64313 2.36621,0.64313 2.14878,0 3.68363,-1.0971 3.68363,-2.63555 0,-0.74401 -0.39651,-1.41235 -1.04881,-1.79066 -0.4093,-0.2396 -0.72905,-0.35309 -1.52206,-0.50441 0.72905,-0.16394 1.04881,-0.29004 1.39415,-0.55486 0.44766,-0.34047 0.72905,-0.87011 0.72905,-1.37452 0,-1.18536 -1.29182,-2.05547 -3.05689,-2.05547 -0.76742,0 -1.40694,0.16393 -1.91856,0.51702 -0.60114,0.39092 -0.95927,0.97099 -0.95927,1.52584 0,0.46658 0.30696,0.80706 0.74184,0.80706 0.38371,0 0.70347,-0.27742 0.70347,-0.60529 0,-0.0883 -0.0256,-0.18916 -0.064,-0.30265 -0.15348,-0.34048 -0.15348,-0.34048 -0.15348,-0.44136 0,-0.51702 0.70347,-0.93316 1.57321,-0.93316 1.07439,0 1.75228,0.6179 1.75228,1.57629 0,0.44136 -0.19185,0.90794 -0.47324,1.14753 -0.33255,0.31526 -0.97207,0.50441 -1.62438,0.50441 -0.14069,0 -0.30696,-0.0126 -0.61393,-0.0378 z m 12.07411,-4.174 h -0.31976 c -0.52441,0.11349 -0.69068,0.13871 -1.50926,0.22699 v 0.32786 l 0.37092,0.0126 c 0.53719,0.0252 0.60114,0.10089 0.60114,0.64313 v 2.83731 c 0.0128,0.59268 -0.064,0.68096 -0.6651,0.75662 l -0.33255,0.0126 v 0.32787 h 2.83946 v -0.32787 l -0.31975,-0.0126 c -0.57557,-0.0378 -0.67789,-0.15133 -0.6651,-0.7314 z m 6.12658,0 h -0.75463 l -5.93473,8.5876 h 0.74184 z m 2.31505,7.1122 -0.3965,-0.0883 -0.10232,0.21437 c -0.23023,0.52963 -0.43487,0.64313 -1.11276,0.64313 h -1.70112 c 0.85695,-0.51703 1.09997,-0.66835 1.47089,-0.95838 0.94649,-0.74401 1.40694,-1.42497 1.40694,-2.09331 0,-0.87011 -0.83137,-1.48801 -1.99529,-1.48801 -1.08718,0 -1.98251,0.65573 -1.98251,1.45018 0,0.37831 0.25581,0.66834 0.58836,0.66834 0.26859,0 0.51161,-0.21437 0.51161,-0.44136 0,-0.0883 -0.0512,-0.20176 -0.1279,-0.27742 -0.15349,-0.16394 -0.16628,-0.18916 -0.16628,-0.31526 0,-0.31526 0.52441,-0.6179 1.07439,-0.6179 0.63952,0 1.04881,0.36569 1.04881,0.94577 0,0.65573 -0.51161,1.45018 -1.43252,2.21941 -0.43487,0.36569 -0.62673,0.4918 -1.52205,1.00882 v 0.60529 h 4.02896 z"
         id="path64"
         style="font-size:12.7px;font-family:'URW Bookman';-inkscape-font-specification:'URW Bookman, Normal';text-align:center;text-anchor:middle;fill:#1a1a1a;stroke:#000000;stroke-width:0.799998;stroke-linejoin:round" />
    </g>
    <g
       id="g3"
       transform="translate(-81.000844,79.040695)"
       style="display:inline">
      <path
         d="m 274.34714,142.80043 1.11276,-1.17276 c 0.70347,-0.68095 1.0616,-0.88272 1.91855,-1.04665 v -0.37831 h -2.69876 v 0.37831 c 0.46045,0.0504 0.57556,0.11349 0.57556,0.32787 0,0.10088 -0.0384,0.20176 -0.1279,0.30264 l -1.08718,1.21059 -1.01044,-1.21059 c -0.0895,-0.1261 -0.15349,-0.23959 -0.15349,-0.31525 0,-0.17655 0.15349,-0.26482 0.52441,-0.30265 l 0.1279,-0.0126 v -0.37831 h -3.17201 v 0.37831 c 0.61394,0.0883 0.85696,0.23959 1.30462,0.76923 l 1.49647,1.85371 -1.62437,1.80327 c -0.57557,0.64312 -0.90812,0.84489 -1.52206,0.93316 v 0.37831 h 2.86504 v -0.37831 c -0.44766,-0.0757 -0.54998,-0.10088 -0.63951,-0.15133 -0.12791,-0.0757 -0.21744,-0.20176 -0.21744,-0.32786 0,-0.12611 0.0895,-0.29004 0.23023,-0.45397 l 1.27903,-1.41235 1.15114,1.58889 c 0.0767,0.11349 0.1279,0.2396 0.1279,0.34048 0,0.23959 -0.15349,0.32787 -0.76742,0.41614 v 0.37831 h 3.54293 v -0.37831 c -0.69068,-0.11349 -0.92091,-0.26482 -1.48368,-0.93316 z"
         id="path51"
         style="font-size:12.7px;font-family:'URW Bookman';-inkscape-font-specification:'URW Bookman, Normal';text-align:center;text-anchor:middle;fill:#1a1a1a;stroke:#000000;stroke-width:0.799998;stroke-linejoin:round" />
      <path
         d="m 269.2246,131.75806 -0.48603,-0.1261 -0.12791,0.29004 c -0.3965,0.95838 -0.75463,1.17275 -1.89297,1.16014 h -2.90341 c 1.52205,-0.94577 1.9953,-1.27364 2.62202,-1.79066 1.49648,-1.2358 2.23832,-2.38334 2.23832,-3.46782 0,-1.43758 -1.30462,-2.45901 -3.14643,-2.45901 -1.67554,0 -3.08248,1.08449 -3.08248,2.37073 0,0.6053 0.37092,1.05927 0.86975,1.05927 0.38371,0 0.72905,-0.31526 0.72905,-0.66835 0,-0.13871 -0.064,-0.29003 -0.15349,-0.41614 -0.23022,-0.29003 -0.2686,-0.36569 -0.2686,-0.58007 0,-0.60529 0.86975,-1.16015 1.80345,-1.16015 1.0488,0 1.73948,0.66835 1.73948,1.67717 0,0.95838 -0.47324,1.91676 -1.53484,3.08952 -0.84416,0.92055 -1.62437,1.52584 -3.23596,2.49684 v 0.88272 h 6.21611 z m 7.53352,-6.22947 h -0.31976 c -0.5244,0.11349 -0.69068,0.13871 -1.50926,0.22698 v 0.32787 l 0.37092,0.0126 c 0.5372,0.0252 0.60115,0.10088 0.60115,0.64312 v 2.83731 c 0.0128,0.59269 -0.064,0.68096 -0.6651,0.75662 l -0.33255,0.0126 v 0.32787 h 2.83946 v -0.32787 l -0.31976,-0.0126 c -0.57556,-0.0378 -0.67789,-0.15132 -0.6651,-0.73139 z m 6.12659,0 h -0.75464 l -5.93472,8.5876 h 0.74184 z m 2.31505,7.11219 -0.3965,-0.0883 -0.10232,0.21438 c -0.23023,0.52963 -0.43488,0.64312 -1.11276,0.64312 h -1.70112 c 0.85695,-0.51702 1.09997,-0.66835 1.47089,-0.95838 0.94649,-0.74401 1.40694,-1.42496 1.40694,-2.09331 0,-0.87011 -0.83138,-1.48801 -1.9953,-1.48801 -1.08718,0 -1.9825,0.65573 -1.9825,1.45018 0,0.37831 0.2558,0.66835 0.58835,0.66835 0.2686,0 0.51162,-0.21438 0.51162,-0.44136 0,-0.0883 -0.0512,-0.20177 -0.12791,-0.27743 -0.15348,-0.16393 -0.16627,-0.18915 -0.16627,-0.31526 0,-0.31525 0.5244,-0.6179 1.07439,-0.6179 0.63952,0 1.04881,0.3657 1.04881,0.94577 0,0.65573 -0.51162,1.45018 -1.43252,2.21941 -0.43487,0.3657 -0.62673,0.4918 -1.52205,1.00882 v 0.6053 h 4.02896 z"
         id="path52"
         style="font-size:12.7px;font-family:'URW Bookman';-inkscape-font-specification:'URW Bookman, Normal';text-align:center;text-anchor:middle;fill:#1a1a1a;stroke:#000000;stroke-width:0.799998;stroke-linejoin:round" />
      <path
         d="m 269.2246,158.79864 -0.48603,-0.1261 -0.12791,0.29004 c -0.3965,0.95838 -0.75463,1.17275 -1.89297,1.16014 h -2.90341 c 1.52205,-0.94577 1.9953,-1.27364 2.62202,-1.79066 1.49648,-1.2358 2.23832,-2.38334 2.23832,-3.46782 0,-1.43758 -1.30462,-2.45901 -3.14643,-2.45901 -1.67554,0 -3.08248,1.08449 -3.08248,2.37073 0,0.6053 0.37092,1.05927 0.86975,1.05927 0.38371,0 0.72905,-0.31526 0.72905,-0.66835 0,-0.13871 -0.064,-0.29003 -0.15349,-0.41614 -0.23022,-0.29003 -0.2686,-0.36569 -0.2686,-0.58007 0,-0.60529 0.86975,-1.16015 1.80345,-1.16015 1.0488,0 1.73948,0.66835 1.73948,1.67717 0,0.95838 -0.47324,1.91676 -1.53484,3.08952 -0.84416,0.92055 -1.62437,1.52584 -3.23596,2.49684 v 0.88272 h 6.21611 z m 7.53352,-6.22947 h -0.31976 c -0.5244,0.11349 -0.69068,0.13871 -1.50926,0.22698 v 0.32787 l 0.37092,0.0126 c 0.5372,0.0252 0.60115,0.10088 0.60115,0.64312 v 2.83731 c 0.0128,0.59269 -0.064,0.68096 -0.6651,0.75662 l -0.33255,0.0126 v 0.32787 h 2.83946 v -0.32787 l -0.31976,-0.0126 c -0.57556,-0.0378 -0.67789,-0.15132 -0.6651,-0.73139 z m 6.12659,0 h -0.75464 l -5.93472,8.5876 h 0.74184 z m 2.31505,7.11219 -0.3965,-0.0883 -0.10232,0.21438 c -0.23023,0.52963 -0.43488,0.64312 -1.11276,0.64312 h -1.70112 c 0.85695,-0.51702 1.09997,-0.66835 1.47089,-0.95838 0.94649,-0.74401 1.40694,-1.42496 1.40694,-2.09331 0,-0.87011 -0.83138,-1.48801 -1.9953,-1.48801 -1.08718,0 -1.9825,0.65573 -1.9825,1.45018 0,0.37831 0.2558,0.66835 0.58835,0.66835 0.2686,0 0.51162,-0.21438 0.51162,-0.44136 0,-0.0883 -0.0512,-0.20177 -0.12791,-0.27743 -0.15348,-0.16393 -0.16627,-0.18915 -0.16627,-0.31526 0,-0.31525 0.5244,-0.6179 1.07439,-0.6179 0.63952,0 1.04881,0.3657 1.04881,0.94577 0,0.65573 -0.51162,1.45018 -1.43252,2.21941 -0.43487,0.3657 -0.62673,0.4918 -1.52205,1.00882 v 0.6053 h 4.02896 z"
         id="path52-1"
         style="font-size:12.7px;font-family:'URW Bookman';-inkscape-font-specification:'URW Bookman, Normal';text-align:center;text-anchor:middle;display:inline;fill:#1a1a1a;stroke:#000000;stroke-width:0.799998;stroke-linejoin:round" />
    </g>
    <g
       id="g7"
       transform="translate(-131.29124,-455.95719)"
       style="display:inline">
      <path
         d="m 451.34757,477.76877 v -0.4064 c -0.1905,-0.8255 -0.2413,-1.0922 -0.3937,-2.3622 h -0.381 l -0.0254,0.508 c -0.0254,0.9017 -0.2159,1.0668 -1.1938,1.0541 h -4.8641 c -0.7239,0 -0.8763,-0.0254 -1.016,-0.1651 -0.2032,-0.2032 -0.3429,-0.5842 -0.3683,-0.9906 l -0.0254,-0.4191 h -0.381 v 4.3307 h 0.381 l 0.0254,-0.4064 c 0.0508,-0.9525 0.2921,-1.1557 1.3589,-1.143 z m -6.2738,10.37591 0.127,-0.4826 -0.2921,-0.127 c -0.9652,-0.3937 -1.1811,-0.7493 -1.1684,-1.8796 v -2.8829 c 0.9525,1.5113 1.2827,1.9812 1.8034,2.6035 1.2446,1.4859 2.4003,2.2225 3.4925,2.2225 1.4478,0 2.4765,-1.2954 2.4765,-3.1242 0,-1.6637 -1.0922,-3.0607 -2.3876,-3.0607 -0.6096,0 -1.0668,0.3683 -1.0668,0.8636 0,0.381 0.3175,0.7239 0.6731,0.7239 0.1397,0 0.2921,-0.0635 0.4191,-0.1524 0.2921,-0.2286 0.3683,-0.2667 0.5842,-0.2667 0.6096,0 1.1684,0.8636 1.1684,1.7907 0,1.0414 -0.6731,1.7272 -1.6891,1.7272 -0.9652,0 -1.9304,-0.4699 -3.1115,-1.524 -0.9271,-0.8382 -1.5367,-1.6129 -2.5146,-3.2131 h -0.889 v 6.1722 z m 6.2738,7.48031 v -0.3175 c -0.1143,-0.5207 -0.1397,-0.6858 -0.2286,-1.4986 h -0.3302 l -0.0127,0.3683 c -0.0254,0.5334 -0.1016,0.5969 -0.6477,0.5969 h -2.8575 c -0.5969,0.0127 -0.6858,-0.0635 -0.762,-0.6604 l -0.0127,-0.3302 h -0.3302 v 2.8194 h 0.3302 l 0.0127,-0.3175 c 0.0381,-0.5715 0.1524,-0.6731 0.7366,-0.6604 z m 0,6.0833 v -0.7493 l -8.6487,-5.8928 v 0.7366 z m -7.1628,2.2987 0.0889,-0.3937 -0.2159,-0.1016 c -0.5334,-0.2286 -0.6477,-0.4318 -0.6477,-1.1049 v -1.6891 c 0.5207,0.8509 0.6731,1.0922 0.9652,1.4605 0.7493,0.9398 1.4351,1.397 2.1082,1.397 0.8763,0 1.4986,-0.8255 1.4986,-1.9812 0,-1.0795 -0.6604,-1.9685 -1.4605,-1.9685 -0.381,0 -0.6731,0.254 -0.6731,0.5842 0,0.2667 0.2159,0.508 0.4445,0.508 0.0889,0 0.2032,-0.0508 0.2794,-0.127 0.1651,-0.1524 0.1905,-0.1651 0.3175,-0.1651 0.3175,0 0.6223,0.5207 0.6223,1.0668 0,0.635 -0.3683,1.0414 -0.9525,1.0414 -0.6604,0 -1.4605,-0.508 -2.2352,-1.4224 -0.3683,-0.4318 -0.4953,-0.6223 -1.016,-1.5113 h -0.6096 v 4.0005 z"
         id="path47"
         style="font-size:12.7px;font-family:'URW Bookman';-inkscape-font-specification:'URW Bookman, Normal';text-align:center;text-anchor:middle;fill:#1a1a1a;stroke:#000000;stroke-width:0.799999;stroke-linejoin:round" />
      <path
         d="m 430.36717,489.31309 1.1811,1.1049 c 0.6858,0.6985 0.889,1.0541 1.0541,1.905 h 0.381 v -2.6797 h -0.381 c -0.0508,0.4572 -0.1143,0.5715 -0.3302,0.5715 -0.1016,0 -0.2032,-0.0381 -0.3048,-0.127 l -1.2192,-1.0795 1.2192,-1.0033 c 0.127,-0.0889 0.2413,-0.1524 0.3175,-0.1524 0.1778,0 0.2667,0.1524 0.3048,0.5207 l 0.0127,0.127 h 0.381 v -3.1496 h -0.381 c -0.0889,0.6096 -0.2413,0.8509 -0.7747,1.2954 l -1.8669,1.4859 -1.8161,-1.6129 c -0.6477,-0.5715 -0.8509,-0.9017 -0.9398,-1.5113 h -0.381 v 2.8448 h 0.381 c 0.0762,-0.4445 0.1016,-0.5461 0.1524,-0.635 0.0762,-0.127 0.2032,-0.2159 0.3302,-0.2159 0.127,0 0.2921,0.0889 0.4572,0.2286 l 1.4224,1.27 -1.6002,1.143 c -0.1143,0.0762 -0.2413,0.127 -0.3429,0.127 -0.2413,0 -0.3302,-0.1524 -0.4191,-0.762 h -0.381 v 3.5179 h 0.381 c 0.1143,-0.6858 0.2667,-0.9144 0.9398,-1.4732 z"
         id="path48"
         style="font-size:12.7px;font-family:'URW Bookman';-inkscape-font-specification:'URW Bookman, Normal';text-align:center;text-anchor:middle;fill:#1a1a1a;stroke:#000000;stroke-width:0.799999;stroke-linejoin:round" />
      <path
         d="m 419.59757,481.70578 v -0.4064 c -0.1905,-0.8255 -0.2413,-1.0922 -0.3937,-2.3622 h -0.381 l -0.0254,0.508 c -0.0254,0.9017 -0.2159,1.0668 -1.1938,1.0541 h -4.8641 c -0.7239,0 -0.8763,-0.0254 -1.016,-0.1651 -0.2032,-0.2032 -0.3429,-0.5842 -0.3683,-0.9906 l -0.0254,-0.4191 h -0.381 v 4.3307 h 0.381 l 0.0254,-0.4064 c 0.0508,-0.9525 0.2921,-1.1557 1.3589,-1.143 z m 0,9.98221 v -0.3175 c -0.1143,-0.5207 -0.1397,-0.6858 -0.2286,-1.4986 h -0.3302 l -0.0127,0.3683 c -0.0254,0.5334 -0.1016,0.5969 -0.6477,0.5969 h -2.8575 c -0.5969,0.0127 -0.6858,-0.0635 -0.762,-0.6604 l -0.0127,-0.3302 h -0.3302 v 2.8194 h 0.3302 l 0.0127,-0.3175 c 0.0381,-0.5715 0.1524,-0.6731 0.7366,-0.6604 z m 0,6.0833 v -0.7493 l -8.6487,-5.8928 v 0.7366 z m -7.1628,2.2987 0.0889,-0.3937 -0.2159,-0.1016 c -0.5334,-0.2286 -0.6477,-0.4318 -0.6477,-1.1049 v -1.6891 c 0.5207,0.8509 0.6731,1.0922 0.9652,1.4605 0.7493,0.9398 1.4351,1.397 2.1082,1.397 0.8763,0 1.4986,-0.8255 1.4986,-1.9812 0,-1.0795 -0.6604,-1.9685 -1.4605,-1.9685 -0.381,0 -0.6731,0.254 -0.6731,0.5842 0,0.2667 0.2159,0.508 0.4445,0.508 0.0889,0 0.2032,-0.0508 0.2794,-0.127 0.1651,-0.1524 0.1905,-0.1651 0.3175,-0.1651 0.3175,0 0.6223,0.5207 0.6223,1.0668 0,0.635 -0.3683,1.0414 -0.9525,1.0414 -0.6604,0 -1.4605,-0.508 -2.2352,-1.4224 -0.3683,-0.4318 -0.4953,-0.6223 -1.016,-1.5113 h -0.6096 v 4.0005 z"
         id="path49"
         style="font-size:12.7px;font-family:'URW Bookman';-inkscape-font-specification:'URW Bookman, Normal';text-align:center;text-anchor:middle;fill:#1a1a1a;stroke:#000000;stroke-width:0.799999;stroke-linejoin:round" />
    </g>
  </g>
</svg>
