<?xml version="1.0" encoding="UTF-8" standalone="no"?>
<!-- Created with Inkscape (http://www.inkscape.org/) -->

<svg
   width="539.45221mm"
   height="246.31691mm"
   viewBox="0 0 539.45221 246.3169"
   version="1.1"
   id="svg1"
   inkscape:version="1.4.1 (93de688d07, 2025-03-30)"
   sodipodi:docname="layout-1.svg"
   inkscape:export-filename="layout-1.pdf"
   inkscape:export-xdpi="96"
   inkscape:export-ydpi="96"
   xmlns:inkscape="http://www.inkscape.org/namespaces/inkscape"
   xmlns:sodipodi="http://sodipodi.sourceforge.net/DTD/sodipodi-0.dtd"
   xmlns="http://www.w3.org/2000/svg"
   xmlns:svg="http://www.w3.org/2000/svg">
  <sodipodi:namedview
     id="namedview1"
     pagecolor="#ffffff"
     bordercolor="#000000"
     borderopacity="0.25"
     inkscape:showpageshadow="2"
     inkscape:pageopacity="0.0"
     inkscape:pagecheckerboard="0"
     inkscape:deskcolor="#d1d1d1"
     inkscape:document-units="mm"
     inkscape:zoom="0.25996593"
     inkscape:cx="115.39974"
     inkscape:cy="1219.3906"
     inkscape:window-width="1896"
     inkscape:window-height="1032"
     inkscape:window-x="0"
     inkscape:window-y="0"
     inkscape:window-maximized="1"
     inkscape:current-layer="layer2" />
  <defs
     id="defs1">
    <rect
       x="1103.9908"
       y="1069.3709"
       width="780.87155"
       height="142.32634"
       id="rect10" />
    <rect
       x="1334.7903"
       y="1280.9371"
       width="423.13237"
       height="353.89253"
       id="rect9" />
    <rect
       x="1465.5767"
       y="1427.1101"
       width="323.11926"
       height="180.79292"
       id="rect8" />
    <rect
       x="1388.6435"
       y="1280.9371"
       width="319.27261"
       height="388.51245"
       id="rect6" />
    <rect
       x="1527.1232"
       y="1100.1442"
       width="1146.3041"
       height="496.21887"
       id="rect3" />
    <linearGradient
       id="swatch1"
       inkscape:swatch="solid">
      <stop
         style="stop-color:#28220b;stop-opacity:1;"
         offset="0"
         id="stop1" />
    </linearGradient>
  </defs>
  <g
     inkscape:label="Layer 1"
     inkscape:groupmode="layer"
     id="layer1"
     transform="translate(-22.785669,67.564785)">
    <rect
       style="fill:none;stroke:#000000;stroke-width:0.8;stroke-linejoin:round;stroke-dasharray:none;stroke-opacity:0"
       id="rect1"
       width="317.29999"
       height="266.95911"
       x="332.81323"
       y="-52.98595" />
    <rect
       style="fill:none;stroke:#000000;stroke-width:0.8;stroke-linejoin:round;stroke-dasharray:none;stroke-dashoffset:0;stroke-opacity:1"
       id="rect2"
       width="62.700001"
       height="316.70001"
       x="-26.064802"
       y="-339.88568"
       transform="rotate(90)" />
    <rect
       style="fill:none;stroke:#000000;stroke-width:0.799996;stroke-linejoin:round;stroke-dasharray:none;stroke-dashoffset:0;stroke-opacity:1"
       id="rect2-2"
       width="37.299999"
       height="316.70001"
       x="-67.164787"
       y="-339.88568"
       transform="rotate(90)" />
    <path
       id="rect4"
       style="fill:none;stroke:#000000;stroke-width:0.799998;stroke-linejoin:round;stroke-opacity:0"
       d="m 421.9681,30.606591 h 62.7 v 52.00968 h -62.7 z" />
    <rect
       style="fill:none;stroke:#000000;stroke-width:0.799998;stroke-linejoin:round;stroke-dasharray:none;stroke-dashoffset:0;stroke-opacity:1"
       id="rect5"
       width="62.700005"
       height="62.700005"
       x="421.96811"
       y="25.261429" />
    <rect
       style="fill:none;stroke:#000000;stroke-width:0.799998;stroke-linejoin:round;stroke-dasharray:none;stroke-dashoffset:0;stroke-opacity:1"
       id="rect5-5"
       width="215.10001"
       height="215.10001"
       x="345.7681"
       y="-50.938572" />
    <path
       id="rect5-5-3"
       style="fill:none;stroke:#000000;stroke-width:0.799998;stroke-linejoin:round"
       d="m 396.5681,-0.13856783 h 113.5 V 113.36143 h -113.5 z" />
    <path
       id="rect5-5-3-3"
       style="fill:none;stroke:#000000;stroke-width:0.799998;stroke-linejoin:round"
       d="m 371.1681,-30.609979 h 164.3 V 133.69002 h -164.3 z" />
    <rect
       style="fill:none;stroke:#000000;stroke-width:0.799998;stroke-linejoin:round;stroke-dasharray:none;stroke-dashoffset:0;stroke-opacity:1"
       id="rect5-5-3-0"
       width="138.90001"
       height="138.90001"
       x="200.39183"
       y="40.171783" />
    <rect
       style="fill:none;stroke:#000000;stroke-width:0.799998;stroke-linejoin:round;stroke-dasharray:none;stroke-dashoffset:0;stroke-opacity:1"
       id="rect5-5-3-1"
       width="88.099998"
       height="88.099998"
       x="226.39545"
       y="66.67836" />
  </g>
  <g
     inkscape:groupmode="layer"
     id="layer2"
     inkscape:label="engrave"
     style="display:inline">
    <path
       d="m 219.26144,114.92064 h -0.48603 c -0.21744,0.37831 -0.37092,0.44136 -1.03602,0.45397 h -3.86269 v 4.52709 l 0.54999,0.1261 c 0.63951,-0.87011 1.13834,-1.16014 2.00808,-1.16014 1.35578,0 2.19994,0.88272 2.19994,2.30768 0,1.45018 -0.9209,2.38334 -2.34063,2.38334 -0.83137,0 -1.52205,-0.35309 -1.52205,-0.78184 0,-0.0504 0,-0.10088 0.0128,-0.13871 0.11511,-0.3657 0.11511,-0.3657 0.11511,-0.46658 0,-0.37831 -0.34534,-0.70618 -0.74184,-0.70618 -0.43487,0 -0.78021,0.3657 -0.78021,0.80706 0,1.04665 1.35577,1.85371 3.09526,1.85371 2.13599,0 3.60688,-1.27364 3.60688,-3.13996 0,-1.68977 -1.30461,-2.84992 -3.22317,-2.84992 -0.86974,0 -1.43252,0.20176 -2.18715,0.79445 v -2.52206 h 4.37431 z m 8.24979,0.45397 h -0.31976 c -0.5244,0.11349 -0.69067,0.13871 -1.50926,0.22698 v 0.32787 l 0.37092,0.0126 c 0.5372,0.0252 0.60115,0.10088 0.60115,0.64313 v 2.83731 c 0.0128,0.59268 -0.0639,0.68095 -0.6651,0.75661 l -0.33255,0.0126 v 0.32786 h 2.83946 v -0.32786 l -0.31976,-0.0126 c -0.57556,-0.0378 -0.67789,-0.15132 -0.6651,-0.73139 z m 6.12659,0 h -0.75464 l -5.93472,8.5876 h 0.74184 z m 2.31505,7.1122 -0.3965,-0.0883 -0.10232,0.21438 c -0.23023,0.52963 -0.43488,0.64312 -1.11276,0.64312 h -1.70112 c 0.85695,-0.51702 1.09997,-0.66834 1.47089,-0.95838 0.94649,-0.744 1.40694,-1.42496 1.40694,-2.0933 0,-0.87011 -0.83137,-1.48802 -1.9953,-1.48802 -1.08718,0 -1.9825,0.65574 -1.9825,1.45018 0,0.37831 0.2558,0.66835 0.58835,0.66835 0.2686,0 0.51162,-0.21438 0.51162,-0.44136 0,-0.0883 -0.0512,-0.20176 -0.12791,-0.27743 -0.15348,-0.16393 -0.16627,-0.18915 -0.16627,-0.31525 0,-0.31526 0.5244,-0.61791 1.07439,-0.61791 0.63952,0 1.04881,0.3657 1.04881,0.94577 0,0.65574 -0.51162,1.45019 -1.43252,2.21941 -0.43487,0.3657 -0.62673,0.4918 -1.52205,1.00883 v 0.60529 h 4.02896 z"
       id="path59"
       style="font-size:12.7px;font-family:'URW Bookman';-inkscape-font-specification:'URW Bookman, Normal';text-align:center;text-anchor:middle;fill:#1a1a1a;stroke:#000000;stroke-width:0.799998;stroke-linejoin:round" />
    <path
       d="m 248.85492,119.06311 1.11276,-1.17276 c 0.70347,-0.68095 1.0616,-0.88272 1.91855,-1.04665 v -0.37831 h -2.69876 v 0.37831 c 0.46045,0.0504 0.57556,0.11349 0.57556,0.32787 0,0.10088 -0.0384,0.20176 -0.1279,0.30264 l -1.08718,1.21059 -1.01044,-1.21059 c -0.0895,-0.1261 -0.15349,-0.23959 -0.15349,-0.31525 0,-0.17655 0.15349,-0.26482 0.52441,-0.30265 l 0.1279,-0.0126 v -0.37831 h -3.17201 v 0.37831 c 0.61394,0.0883 0.85696,0.2396 1.30462,0.76923 l 1.49647,1.85371 -1.62437,1.80327 c -0.57557,0.64312 -0.90812,0.84489 -1.52206,0.93316 v 0.37831 h 2.86504 v -0.37831 c -0.44766,-0.0757 -0.54998,-0.10088 -0.63951,-0.15132 -0.12791,-0.0757 -0.21744,-0.20177 -0.21744,-0.32787 0,-0.1261 0.0895,-0.29004 0.23023,-0.45397 l 1.27903,-1.41235 1.15114,1.58889 c 0.0767,0.1135 0.1279,0.2396 0.1279,0.34048 0,0.2396 -0.15349,0.32787 -0.76742,0.41614 v 0.37831 h 3.54293 v -0.37831 c -0.69068,-0.11349 -0.92091,-0.26482 -1.48368,-0.93316 z"
       id="path60"
       style="font-size:12.7px;font-family:'URW Bookman';-inkscape-font-specification:'URW Bookman, Normal';text-align:center;text-anchor:middle;fill:#1a1a1a;stroke:#000000;stroke-width:0.799998;stroke-linejoin:round" />
    <path
       d="m 266.54055,114.92064 h -0.48603 c -0.21744,0.3783 -0.37092,0.44136 -1.03602,0.45397 h -3.86269 v 4.52709 l 0.54999,0.1261 c 0.63951,-0.87011 1.13834,-1.16015 2.00808,-1.16015 1.35578,0 2.19994,0.88272 2.19994,2.30768 0,1.45019 -0.9209,2.38335 -2.34063,2.38335 -0.83137,0 -1.52205,-0.35309 -1.52205,-0.78184 0,-0.0504 0,-0.10088 0.0128,-0.13871 0.11511,-0.3657 0.11511,-0.3657 0.11511,-0.46658 0,-0.37831 -0.34534,-0.70618 -0.74184,-0.70618 -0.43487,0 -0.78021,0.3657 -0.78021,0.80706 0,1.04665 1.35577,1.85371 3.09526,1.85371 2.13599,0 3.60688,-1.27364 3.60688,-3.13996 0,-1.68978 -1.30461,-2.84992 -3.22317,-2.84992 -0.86974,0 -1.43252,0.20176 -2.18715,0.79445 v -2.52206 h 4.37431 z m 8.24979,0.45397 h -0.31976 c -0.5244,0.11349 -0.69067,0.13871 -1.50926,0.22698 v 0.32787 l 0.37092,0.0126 c 0.5372,0.0252 0.60115,0.10088 0.60115,0.64312 v 2.83732 c 0.0128,0.59268 -0.0639,0.68095 -0.6651,0.75661 l -0.33255,0.0126 v 0.32787 h 2.83946 v -0.32787 l -0.31976,-0.0126 c -0.57556,-0.0378 -0.67789,-0.15132 -0.6651,-0.73139 z m 6.12659,0 h -0.75464 l -5.93472,8.5876 h 0.74184 z m 2.31505,7.11219 -0.3965,-0.0883 -0.10232,0.21438 c -0.23023,0.52963 -0.43488,0.64312 -1.11276,0.64312 h -1.70112 c 0.85695,-0.51702 1.09997,-0.66834 1.47089,-0.95838 0.94649,-0.74401 1.40694,-1.42496 1.40694,-2.09331 0,-0.87011 -0.83137,-1.48801 -1.9953,-1.48801 -1.08718,0 -1.9825,0.65573 -1.9825,1.45018 0,0.37831 0.2558,0.66835 0.58835,0.66835 0.2686,0 0.51162,-0.21438 0.51162,-0.44136 0,-0.0883 -0.0512,-0.20177 -0.12791,-0.27743 -0.15348,-0.16393 -0.16627,-0.18915 -0.16627,-0.31526 0,-0.31525 0.5244,-0.6179 1.07439,-0.6179 0.63952,0 1.04881,0.3657 1.04881,0.94577 0,0.65574 -0.51162,1.45018 -1.43252,2.21941 -0.43487,0.3657 -0.62673,0.4918 -1.52205,1.00882 v 0.6053 h 4.02896 z"
       id="path61"
       style="font-size:12.7px;font-family:'URW Bookman';-inkscape-font-specification:'URW Bookman, Normal';text-align:center;text-anchor:middle;fill:#1a1a1a;stroke:#000000;stroke-width:0.799998;stroke-linejoin:round" />
    <path
       d="m 201.46195,-6.113067 v -0.4064 c -0.1905,-0.8255 -0.2413,-1.0922 -0.3937,-2.3622 h -0.381 l -0.0254,0.508 c -0.0254,0.9017 -0.2159,1.0668 -1.1938,1.0541 h -4.8641 c -0.7239,0 -0.8763,-0.0254 -1.016,-0.1651 -0.2032,-0.2032 -0.3429,-0.5842 -0.3683,-0.9906 l -0.0254,-0.4191 h -0.381 v 4.3307 h 0.381 l 0.0254,-0.4064 c 0.0508,-0.9525 0.2921,-1.1557 1.3589,-1.143 z m -6.2738,10.37591 0.127,-0.4826 -0.2921,-0.127 c -0.9652,-0.3937 -1.1811,-0.7493 -1.1684,-1.8796 v -2.8829 c 0.9525,1.5113 1.2827,1.9812 1.8034,2.6035 1.2446,1.4859 2.4003,2.2225 3.4925,2.2225 1.4478,0 2.4765,-1.2954 2.4765,-3.1242 0,-1.6637 -1.0922,-3.0607 -2.3876,-3.0607 -0.6096,0 -1.0668,0.3683 -1.0668,0.8636 0,0.381 0.3175,0.7239 0.6731,0.7239 0.1397,0 0.2921,-0.0635 0.4191,-0.1524 0.2921,-0.2286 0.3683,-0.2667 0.5842,-0.2667 0.6096,0 1.1684,0.8636 1.1684,1.7907 0,1.0414 -0.6731,1.7272 -1.6891,1.7272 -0.9652,0 -1.9304,-0.4699 -3.1115,-1.524 -0.9271,-0.8382 -1.5367,-1.6129 -2.5146,-3.2131 h -0.889 v 6.1722 z m 6.2738,7.48031 v -0.3175 c -0.1143,-0.5207 -0.1397,-0.6858 -0.2286,-1.4986 h -0.3302 l -0.0127,0.3683 c -0.0254,0.5334 -0.1016,0.5969 -0.6477,0.5969 h -2.8575 c -0.5969,0.0127 -0.6858,-0.0635 -0.762,-0.6604 l -0.0127,-0.3302 h -0.3302 v 2.8194 h 0.3302 l 0.0127,-0.3175 c 0.0381,-0.5715 0.1524,-0.6731 0.7366,-0.6604 z m 0,6.0833 v -0.7493 l -8.6487,-5.8928 v 0.7366 z m -7.1628,2.2987 0.0889,-0.3937 -0.2159,-0.1016 c -0.5334,-0.2286 -0.6477,-0.4318 -0.6477,-1.1049 v -1.6891 c 0.5207,0.8509 0.6731,1.0922 0.9652,1.4605 0.7493,0.9398 1.4351,1.397 2.1082,1.397 0.8763,0 1.4986,-0.8255 1.4986,-1.9812 0,-1.0795 -0.6604,-1.9685 -1.4605,-1.9685 -0.381,0 -0.6731,0.254 -0.6731,0.5842 0,0.2667 0.2159,0.508 0.4445,0.508 0.0889,0 0.2032,-0.0508 0.2794,-0.127 0.1651,-0.1524 0.1905,-0.1651 0.3175,-0.1651 0.3175,0 0.6223,0.5207 0.6223,1.0668 0,0.635 -0.3683,1.0414 -0.9525,1.0414 -0.6604,0 -1.4605,-0.508 -2.2352,-1.4224 -0.3683,-0.4318 -0.4953,-0.6223 -1.016,-1.5113 h -0.6096 v 4.0005 z"
       id="path44"
       style="font-size:12.7px;font-family:'URW Bookman';-inkscape-font-specification:'URW Bookman, Normal';text-align:center;text-anchor:middle;fill:#1a1a1a;stroke:#000000;stroke-width:0.799999;stroke-linejoin:round"
       transform="translate(-22.785669,67.564786)" />
    <path
       d="m 180.48155,5.431253 1.1811,1.1049 c 0.6858,0.6985 0.889,1.0541 1.0541,1.905 h 0.381 v -2.6797 h -0.381 c -0.0508,0.4572 -0.1143,0.5715 -0.3302,0.5715 -0.1016,0 -0.2032,-0.0381 -0.3048,-0.127 l -1.2192,-1.0795 1.2192,-1.0033 c 0.127,-0.0889 0.2413,-0.1524 0.3175,-0.1524 0.1778,0 0.2667,0.1524 0.3048,0.5207 l 0.0127,0.127 h 0.381 v -3.1496 h -0.381 c -0.0889,0.6096 -0.2413,0.8509 -0.7747,1.2954 l -1.8669,1.4859 -1.8161,-1.6129 c -0.6477,-0.5715 -0.8509,-0.9017 -0.9398,-1.5113 h -0.381 v 2.8448 h 0.381 c 0.0762,-0.4445 0.1016,-0.5461 0.1524,-0.635 0.0762,-0.127 0.2032,-0.2159 0.3302,-0.2159 0.127,0 0.2921,0.0889 0.4572,0.2286 l 1.4224,1.27 -1.6002,1.143 c -0.1143,0.0762 -0.2413,0.127 -0.3429,0.127 -0.2413,0 -0.3302,-0.1524 -0.4191,-0.762 h -0.381 v 3.5179 h 0.381 c 0.1143,-0.6858 0.2667,-0.9144 0.9398,-1.4732 z"
       id="path45"
       style="font-size:12.7px;font-family:'URW Bookman';-inkscape-font-specification:'URW Bookman, Normal';text-align:center;text-anchor:middle;fill:#1a1a1a;stroke:#000000;stroke-width:0.799999;stroke-linejoin:round"
       transform="translate(-22.785669,67.564786)" />
    <path
       d="m 163.43815,0.325843 0.127,-0.4826 -0.2921,-0.127 c -0.9652,-0.3937 -1.1811,-0.7493 -1.1684,-1.8796 v -2.8829 c 0.9525,1.5113 1.2827,1.9812 1.8034,2.6035 1.2446,1.4859 2.4003,2.2225 3.4925,2.2225 1.4478,0 2.4765,-1.2954 2.4765,-3.1242 0,-1.6637 -1.0922,-3.0607 -2.3876,-3.0607 -0.6096,0 -1.0668,0.3683 -1.0668,0.8636 0,0.381 0.3175,0.7239 0.6731,0.7239 0.1397,0 0.2921,-0.0635 0.4191,-0.1524 0.2921,-0.2286 0.3683,-0.2667 0.5842,-0.2667 0.6096,0 1.1684,0.8636 1.1684,1.7907 0,1.0414 -0.6731,1.7272 -1.6891,1.7272 -0.9652,0 -1.9304,-0.4699 -3.1115,-1.524 -0.9271,-0.8382 -1.5367,-1.6129 -2.5146,-3.2131 h -0.889 v 6.1722 z m 6.2738,7.4803 v -0.3175 c -0.1143,-0.5207 -0.1397,-0.6858 -0.2286,-1.4986 h -0.3302 l -0.0127,0.3683 c -0.0254,0.5334 -0.1016,0.5969 -0.6477,0.5969 h -2.8575 c -0.5969,0.0127 -0.6858,-0.0635 -0.762,-0.6604 l -0.0127,-0.3302 h -0.3302 v 2.8194 h 0.3302 l 0.0127,-0.3175 c 0.0381,-0.5715 0.1524,-0.6731 0.7366,-0.6604 z m 0,6.0833 v -0.7493 l -8.6487,-5.8928 v 0.7366 z m -7.1628,2.2987 0.0889,-0.3937 -0.2159,-0.1016 c -0.5334,-0.2286 -0.6477,-0.4318 -0.6477,-1.1049 v -1.6891 c 0.5207,0.8509 0.6731,1.0922 0.9652,1.4605 0.7493,0.9398 1.4351,1.397 2.1082,1.397 0.8763,0 1.4986,-0.8255 1.4986,-1.9812 0,-1.0795 -0.6604,-1.9685 -1.4605,-1.9685 -0.381,0 -0.6731,0.254 -0.6731,0.5842 0,0.2667 0.2159,0.508 0.4445,0.508 0.0889,0 0.2032,-0.0508 0.2794,-0.127 0.1651,-0.1524 0.1905,-0.1651 0.3175,-0.1651 0.3175,0 0.6223,0.5207 0.6223,1.0668 0,0.635 -0.3683,1.0414 -0.9525,1.0414 -0.6604,0 -1.4605,-0.508 -2.2352,-1.4224 -0.3683,-0.4318 -0.4953,-0.6223 -1.016,-1.5113 h -0.6096 v 4.0005 z"
       id="path46"
       style="font-size:12.7px;font-family:'URW Bookman';-inkscape-font-specification:'URW Bookman, Normal';text-align:center;text-anchor:middle;fill:#1a1a1a;stroke:#000000;stroke-width:0.799999;stroke-linejoin:round"
       transform="translate(-22.785669,67.564786)" />
    <path
       d="m 201.46195,-59.913057 v -0.4064 c -0.1905,-0.8255 -0.2413,-1.0922 -0.3937,-2.3622 h -0.381 l -0.0254,0.508 c -0.0254,0.9017 -0.2159,1.0668 -1.1938,1.0541 h -4.8641 c -0.7239,0 -0.8763,-0.0254 -1.016,-0.1651 -0.2032,-0.2032 -0.3429,-0.5842 -0.3683,-0.9906 l -0.0254,-0.4191 h -0.381 v 4.3307 h 0.381 l 0.0254,-0.4064 c 0.0508,-0.9525 0.2921,-1.1557 1.3589,-1.143 z m -6.2738,10.37591 0.127,-0.4826 -0.2921,-0.127 c -0.9652,-0.3937 -1.1811,-0.7493 -1.1684,-1.8796 v -2.8829 c 0.9525,1.5113 1.2827,1.9812 1.8034,2.6035 1.2446,1.4859 2.4003,2.2225 3.4925,2.2225 1.4478,0 2.4765,-1.2954 2.4765,-3.1242 0,-1.6637 -1.0922,-3.0607 -2.3876,-3.0607 -0.6096,0 -1.0668,0.3683 -1.0668,0.8636 0,0.381 0.3175,0.7239 0.6731,0.7239 0.1397,0 0.2921,-0.0635 0.4191,-0.1524 0.2921,-0.2286 0.3683,-0.2667 0.5842,-0.2667 0.6096,0 1.1684,0.8636 1.1684,1.7907 0,1.0414 -0.6731,1.7272 -1.6891,1.7272 -0.9652,0 -1.9304,-0.4699 -3.1115,-1.524 -0.9271,-0.8382 -1.5367,-1.6129 -2.5146,-3.2131 h -0.889 v 6.1722 z m 6.2738,7.48031 v -0.3175 c -0.1143,-0.5207 -0.1397,-0.6858 -0.2286,-1.4986 h -0.3302 l -0.0127,0.3683 c -0.0254,0.5334 -0.1016,0.5969 -0.6477,0.5969 h -2.8575 c -0.5969,0.0127 -0.6858,-0.0635 -0.762,-0.6604 l -0.0127,-0.3302 h -0.3302 v 2.8194 h 0.3302 l 0.0127,-0.3175 c 0.0381,-0.5715 0.1524,-0.6731 0.7366,-0.6604 z m 0,6.0833 v -0.7493 l -8.6487,-5.8928 v 0.7366 z m -7.1628,2.2987 0.0889,-0.3937 -0.2159,-0.1016 c -0.5334,-0.2286 -0.6477,-0.4318 -0.6477,-1.1049 v -1.6891 c 0.5207,0.8509 0.6731,1.0922 0.9652,1.4605 0.7493,0.9398 1.4351,1.397 2.1082,1.397 0.8763,0 1.4986,-0.8255 1.4986,-1.9812 0,-1.0795 -0.6604,-1.9685 -1.4605,-1.9685 -0.381,0 -0.6731,0.254 -0.6731,0.5842 0,0.2667 0.2159,0.508 0.4445,0.508 0.0889,0 0.2032,-0.0508 0.2794,-0.127 0.1651,-0.1524 0.1905,-0.1651 0.3175,-0.1651 0.3175,0 0.6223,0.5207 0.6223,1.0668 0,0.635 -0.3683,1.0414 -0.9525,1.0414 -0.6604,0 -1.4605,-0.508 -2.2352,-1.4224 -0.3683,-0.4318 -0.4953,-0.6223 -1.016,-1.5113 h -0.6096 v 4.0005 z"
       id="path47"
       style="font-size:12.7px;font-family:'URW Bookman';-inkscape-font-specification:'URW Bookman, Normal';text-align:center;text-anchor:middle;fill:#1a1a1a;stroke:#000000;stroke-width:0.799999;stroke-linejoin:round"
       transform="translate(-22.785669,67.564786)" />
    <path
       d="m 180.48155,-48.368737 1.1811,1.1049 c 0.6858,0.6985 0.889,1.0541 1.0541,1.905 h 0.381 v -2.6797 h -0.381 c -0.0508,0.4572 -0.1143,0.5715 -0.3302,0.5715 -0.1016,0 -0.2032,-0.0381 -0.3048,-0.127 l -1.2192,-1.0795 1.2192,-1.0033 c 0.127,-0.0889 0.2413,-0.1524 0.3175,-0.1524 0.1778,0 0.2667,0.1524 0.3048,0.5207 l 0.0127,0.127 h 0.381 v -3.1496 h -0.381 c -0.0889,0.6096 -0.2413,0.8509 -0.7747,1.2954 l -1.8669,1.4859 -1.8161,-1.6129 c -0.6477,-0.5715 -0.8509,-0.9017 -0.9398,-1.5113 h -0.381 v 2.8448 h 0.381 c 0.0762,-0.4445 0.1016,-0.5461 0.1524,-0.635 0.0762,-0.127 0.2032,-0.2159 0.3302,-0.2159 0.127,0 0.2921,0.0889 0.4572,0.2286 l 1.4224,1.27 -1.6002,1.143 c -0.1143,0.0762 -0.2413,0.127 -0.3429,0.127 -0.2413,0 -0.3302,-0.1524 -0.4191,-0.762 h -0.381 v 3.5179 h 0.381 c 0.1143,-0.6858 0.2667,-0.9144 0.9398,-1.4732 z"
       id="path48"
       style="font-size:12.7px;font-family:'URW Bookman';-inkscape-font-specification:'URW Bookman, Normal';text-align:center;text-anchor:middle;fill:#1a1a1a;stroke:#000000;stroke-width:0.799999;stroke-linejoin:round"
       transform="translate(-22.785669,67.564786)" />
    <path
       d="m 169.71195,-55.976047 v -0.4064 c -0.1905,-0.8255 -0.2413,-1.0922 -0.3937,-2.3622 h -0.381 l -0.0254,0.508 c -0.0254,0.9017 -0.2159,1.0668 -1.1938,1.0541 h -4.8641 c -0.7239,0 -0.8763,-0.0254 -1.016,-0.1651 -0.2032,-0.2032 -0.3429,-0.5842 -0.3683,-0.9906 l -0.0254,-0.4191 h -0.381 v 4.3307 h 0.381 l 0.0254,-0.4064 c 0.0508,-0.9525 0.2921,-1.1557 1.3589,-1.143 z m 0,9.98221 v -0.3175 c -0.1143,-0.5207 -0.1397,-0.6858 -0.2286,-1.4986 h -0.3302 l -0.0127,0.3683 c -0.0254,0.5334 -0.1016,0.5969 -0.6477,0.5969 h -2.8575 c -0.5969,0.0127 -0.6858,-0.0635 -0.762,-0.6604 l -0.0127,-0.3302 h -0.3302 v 2.8194 h 0.3302 l 0.0127,-0.3175 c 0.0381,-0.5715 0.1524,-0.6731 0.7366,-0.6604 z m 0,6.0833 v -0.7493 l -8.6487,-5.8928 v 0.7366 z m -7.1628,2.2987 0.0889,-0.3937 -0.2159,-0.1016 c -0.5334,-0.2286 -0.6477,-0.4318 -0.6477,-1.1049 v -1.6891 c 0.5207,0.8509 0.6731,1.0922 0.9652,1.4605 0.7493,0.9398 1.4351,1.397 2.1082,1.397 0.8763,0 1.4986,-0.8255 1.4986,-1.9812 0,-1.0795 -0.6604,-1.9685 -1.4605,-1.9685 -0.381,0 -0.6731,0.254 -0.6731,0.5842 0,0.2667 0.2159,0.508 0.4445,0.508 0.0889,0 0.2032,-0.0508 0.2794,-0.127 0.1651,-0.1524 0.1905,-0.1651 0.3175,-0.1651 0.3175,0 0.6223,0.5207 0.6223,1.0668 0,0.635 -0.3683,1.0414 -0.9525,1.0414 -0.6604,0 -1.4605,-0.508 -2.2352,-1.4224 -0.3683,-0.4318 -0.4953,-0.6223 -1.016,-1.5113 h -0.6096 v 4.0005 z"
       id="path49"
       style="font-size:12.7px;font-family:'URW Bookman';-inkscape-font-specification:'URW Bookman, Normal';text-align:center;text-anchor:middle;fill:#1a1a1a;stroke:#000000;stroke-width:0.799999;stroke-linejoin:round"
       transform="translate(-22.785669,67.564786)" />
    <g
       id="g1"
       transform="translate(-20.742924,-266.65352)">
      <path
         d="m 468.33428,291.83922 c 0.67789,-0.17655 0.97206,-0.31526 1.29182,-0.56747 0.40929,-0.32786 0.63952,-0.80705 0.63952,-1.31146 0,-1.17276 -1.26624,-2.00504 -3.0441,-2.00504 -1.77786,0 -3.03132,0.97099 -3.03132,2.34551 0,0.47919 0.16628,0.90794 0.48603,1.26103 0.25581,0.27743 0.56278,0.45397 1.2023,0.70618 -0.80579,0.23959 -1.16392,0.41614 -1.52205,0.76922 -0.39651,0.39092 -0.62673,0.93316 -0.62673,1.4628 0,1.36191 1.43252,2.37073 3.35107,2.37073 2.03367,0 3.54293,-1.16015 3.54293,-2.72382 0,-0.55485 -0.21743,-1.07188 -0.61394,-1.42496 -0.3965,-0.3657 -0.75463,-0.55486 -1.67553,-0.88272 z m -1.5988,-0.50441 c -0.93369,-0.29004 -1.41973,-0.74401 -1.41973,-1.36191 0,-0.8575 0.88254,-1.51324 2.04646,-1.51324 1.08718,0 1.8546,0.64313 1.8546,1.55107 0,0.80705 -0.56277,1.39974 -1.53484,1.61411 z m 1.24067,1.61411 c 1.01044,0.31526 1.52205,0.87011 1.52205,1.67717 0,1.00882 -0.98486,1.74022 -2.31506,1.74022 -1.41973,0 -2.32784,-0.71879 -2.32784,-1.85371 0,-0.94577 0.51161,-1.57629 1.64996,-2.01765 z m 10.0916,-4.82974 h -0.31976 c -0.5244,0.1135 -0.69068,0.13872 -1.50926,0.22699 v 0.32787 l 0.37092,0.0126 c 0.53719,0.0252 0.60115,0.10088 0.60115,0.64312 v 2.83731 c 0.0128,0.59269 -0.064,0.68096 -0.6651,0.75662 l -0.33255,0.0126 v 0.32787 h 2.83946 v -0.32787 l -0.31976,-0.0126 c -0.57557,-0.0378 -0.67789,-0.15132 -0.6651,-0.73139 z m 6.12658,0 h -0.75463 l -5.93473,8.5876 h 0.74185 z m 2.31506,7.1122 -0.3965,-0.0883 -0.10233,0.21438 c -0.23022,0.52963 -0.43487,0.64312 -1.11276,0.64312 h -1.70112 c 0.85696,-0.51702 1.09998,-0.66835 1.4709,-0.95838 0.94648,-0.74401 1.40694,-1.42496 1.40694,-2.09331 0,-0.87011 -0.83138,-1.48801 -1.9953,-1.48801 -1.08718,0 -1.98251,0.65573 -1.98251,1.45018 0,0.37831 0.25581,0.66835 0.58836,0.66835 0.2686,0 0.51161,-0.21438 0.51161,-0.44136 0,-0.0883 -0.0512,-0.20177 -0.1279,-0.27743 -0.15348,-0.16393 -0.16627,-0.18915 -0.16627,-0.31526 0,-0.31525 0.5244,-0.6179 1.07439,-0.6179 0.63951,0 1.04881,0.3657 1.04881,0.94577 0,0.65573 -0.51162,1.45018 -1.43252,2.21941 -0.43488,0.3657 -0.62673,0.4918 -1.52206,1.00882 v 0.60529 h 4.02897 z"
         id="path53"
         style="font-size:12.7px;font-family:'URW Bookman';-inkscape-font-specification:'URW Bookman, Normal';text-align:center;text-anchor:middle;fill:#1a1a1a;stroke:#000000;stroke-width:0.799998;stroke-linejoin:round"
         inkscape:transform-center-x="74.29659"
         inkscape:transform-center-y="-14.248662" />
      <path
         d="m 451.82534,291.95271 1.11276,-1.17276 c 0.70347,-0.68096 1.0616,-0.88272 1.91856,-1.04665 v -0.37831 h -2.69877 v 0.37831 c 0.46046,0.0504 0.57557,0.11349 0.57557,0.32786 0,0.10089 -0.0384,0.20177 -0.1279,0.30265 l -1.08719,1.21059 -1.01043,-1.21059 c -0.0895,-0.1261 -0.15349,-0.2396 -0.15349,-0.31526 0,-0.17654 0.15349,-0.26481 0.52441,-0.30264 l 0.1279,-0.0126 V 289.355 h -3.17201 v 0.37831 c 0.61394,0.0883 0.85696,0.23959 1.30462,0.76922 l 1.49647,1.85371 -1.62438,1.80327 c -0.57556,0.64313 -0.90811,0.84489 -1.52205,0.93316 v 0.37831 h 2.86504 v -0.37831 c -0.44766,-0.0757 -0.54998,-0.10088 -0.63952,-0.15132 -0.1279,-0.0757 -0.21743,-0.20176 -0.21743,-0.32787 0,-0.1261 0.0895,-0.29003 0.23022,-0.45397 l 1.27904,-1.41235 1.15113,1.5889 c 0.0767,0.11349 0.12791,0.23959 0.12791,0.34048 0,0.23959 -0.15349,0.32786 -0.76743,0.41613 v 0.37831 h 3.54293 v -0.37831 c -0.69068,-0.11349 -0.9209,-0.26481 -1.48368,-0.93316 z"
         id="path54"
         style="font-size:12.7px;font-family:'URW Bookman';-inkscape-font-specification:'URW Bookman, Normal';text-align:center;text-anchor:middle;fill:#1a1a1a;stroke:#000000;stroke-width:0.799998;stroke-linejoin:round" />
      <path
         d="m 420.64586,291.83921 c 0.67789,-0.17654 0.97206,-0.31525 1.29182,-0.56746 0.40929,-0.32787 0.63952,-0.80706 0.63952,-1.31147 0,-1.17275 -1.26624,-2.00503 -3.0441,-2.00503 -1.77786,0 -3.03132,0.97099 -3.03132,2.34551 0,0.47919 0.16628,0.90794 0.48603,1.26103 0.25581,0.27742 0.56278,0.45397 1.2023,0.70617 -0.80579,0.2396 -1.16392,0.41614 -1.52205,0.76923 -0.39651,0.39092 -0.62673,0.93316 -0.62673,1.46279 0,1.36191 1.43252,2.37074 3.35107,2.37074 2.03367,0 3.54293,-1.16015 3.54293,-2.72382 0,-0.55486 -0.21743,-1.07188 -0.61394,-1.42497 -0.3965,-0.36569 -0.75463,-0.55485 -1.67553,-0.88272 z m -1.5988,-0.50441 c -0.93369,-0.29003 -1.41973,-0.744 -1.41973,-1.36191 0,-0.8575 0.88254,-1.51323 2.04646,-1.51323 1.08718,0 1.8546,0.64312 1.8546,1.55106 0,0.80706 -0.56277,1.39974 -1.53484,1.61412 z m 1.24067,1.61412 c 1.01044,0.31526 1.52205,0.87011 1.52205,1.67717 0,1.00882 -0.98486,1.74021 -2.31506,1.74021 -1.41973,0 -2.32784,-0.71878 -2.32784,-1.85371 0,-0.94577 0.51161,-1.57628 1.64996,-2.01764 z m 10.0916,-4.82974 h -0.31976 c -0.5244,0.11349 -0.69068,0.13871 -1.50926,0.22699 v 0.32786 l 0.37092,0.0126 c 0.53719,0.0252 0.60115,0.10089 0.60115,0.64313 v 2.83731 c 0.0128,0.59268 -0.064,0.68096 -0.6651,0.75662 l -0.33255,0.0126 v 0.32787 h 2.83946 v -0.32787 l -0.31976,-0.0126 c -0.57557,-0.0378 -0.67789,-0.15133 -0.6651,-0.7314 z m 6.12658,0 h -0.75463 l -5.93473,8.5876 h 0.74185 z m 2.31506,7.1122 -0.3965,-0.0883 -0.10233,0.21437 c -0.23022,0.52963 -0.43487,0.64313 -1.11276,0.64313 h -1.70112 c 0.85696,-0.51703 1.09998,-0.66835 1.4709,-0.95838 0.94648,-0.74401 1.40694,-1.42497 1.40694,-2.09331 0,-0.87011 -0.83138,-1.48801 -1.9953,-1.48801 -1.08718,0 -1.98251,0.65573 -1.98251,1.45018 0,0.37831 0.25581,0.66834 0.58836,0.66834 0.2686,0 0.51161,-0.21437 0.51161,-0.44136 0,-0.0883 -0.0512,-0.20176 -0.1279,-0.27742 -0.15348,-0.16394 -0.16627,-0.18916 -0.16627,-0.31526 0,-0.31526 0.5244,-0.6179 1.07439,-0.6179 0.63951,0 1.04881,0.36569 1.04881,0.94577 0,0.65573 -0.51162,1.45018 -1.43252,2.21941 -0.43488,0.36569 -0.62673,0.4918 -1.52206,1.00882 v 0.60529 h 4.02897 z"
         id="path55"
         style="font-size:12.7px;font-family:'URW Bookman';-inkscape-font-specification:'URW Bookman, Normal';text-align:center;text-anchor:middle;fill:#1a1a1a;stroke:#000000;stroke-width:0.799998;stroke-linejoin:round" />
    </g>
    <g
       id="g2"
       transform="translate(-265.02972,74.296595)">
      <path
         d="m 665.37393,0.39999899 h -1.21508 l -0.23023,0.30265 -1.95692,2.78687001 -1.8674,2.4464 -0.14069,0.18915 0.19186,0.51702 h 4.00338 v 0.52963 c 0.0128,1.05927 -0.1407,1.32408 -0.81858,1.41236 l -0.42209,0.0252 v 0.3783 h 3.69642 v -0.3783 l -0.42208,-0.0252 c -0.67789,-0.0883 -0.83138,-0.35309 -0.81859,-1.41236 v -0.52963 h 1.66275 l 0.28139,-0.71878 h -1.94414 z M 664.15885,5.923309 h -3.28712 c 0.064,-0.10089 0.1279,-0.18916 0.20464,-0.27743 l 1.31741,-1.76544 c 0.60115,-0.80706 1.1895,-1.61411 1.76507,-2.40856 z m 10.38578,-5.52331001 h -0.31976 c -0.5244,0.1135 -0.69068,0.13872 -1.50926,0.22699 v 0.32787 l 0.37092,0.0126 c 0.53719,0.0252 0.60115,0.10088001 0.60115,0.64312001 v 2.83731 c 0.0128,0.59269 -0.064,0.68096 -0.6651,0.75662 l -0.33255,0.0126 v 0.32787 h 2.83946 v -0.32787 l -0.31976,-0.0126 c -0.57557,-0.0378 -0.67789,-0.15132 -0.6651,-0.7314 z m 6.12657,0 h -0.75463 L 673.98185,8.987599 h 0.74185 z m 2.31506,7.11220001 -0.3965,-0.0883 -0.10233,0.21437 c -0.23022,0.52964 -0.43487,0.64313 -1.11276,0.64313 h -1.70112 c 0.85696,-0.51702 1.09997,-0.66835 1.4709,-0.95838 0.94648,-0.74401 1.40693,-1.42496 1.40693,-2.09331 0,-0.87011 -0.83137,-1.48801 -1.99529,-1.48801 -1.08717,0 -1.9825,0.65573 -1.9825,1.45018 0,0.37831 0.25581,0.66835 0.58836,0.66835 0.2686,0 0.5116,-0.21438 0.5116,-0.44136 0,-0.0883 -0.0512,-0.20177 -0.1279,-0.27743 -0.15347,-0.16393 -0.16626,-0.18916 -0.16626,-0.31526 0,-0.31525 0.52439,-0.6179 1.07438,-0.6179 0.63951,0 1.04881,0.3657 1.04881,0.94577 0,0.65573 -0.51162,1.45018 -1.43252,2.21941 -0.43488,0.3657 -0.62672,0.4918 -1.52205,1.00882 v 0.60529 h 4.02896 z"
         id="path56"
         style="font-size:12.7px;font-family:'URW Bookman';-inkscape-font-specification:'URW Bookman, Normal';text-align:center;text-anchor:middle;fill:#1a1a1a;stroke:#000000;stroke-width:0.799998;stroke-linejoin:round" />
      <path
         d="m 696.11213,4.233524 1.11276,-1.17276 c 0.70347,-0.68096 1.0616,-0.88272 1.91856,-1.04665 v -0.37831 h -2.69877 v 0.37831 c 0.46046,0.0504 0.57557,0.11349 0.57557,0.32786 0,0.10089 -0.0384,0.20177 -0.12791,0.30265 l -1.08718,1.21059 -1.01043,-1.21059 c -0.0895,-0.1261 -0.15349,-0.2396 -0.15349,-0.31526 0,-0.17654 0.15349,-0.26481 0.52441,-0.30264 l 0.1279,-0.0126 v -0.37831 h -3.17201 v 0.37831 c 0.61394,0.0883 0.85695,0.23959 1.30462,0.76922 l 1.49647,1.85371 -1.62438,1.80327 c -0.57556,0.64313 -0.90811,0.84489 -1.52205,0.93316 v 0.37831 h 2.86504 v -0.37831 c -0.44766,-0.0757 -0.54998,-0.10088 -0.63952,-0.15132 -0.1279,-0.0757 -0.21743,-0.20176 -0.21743,-0.32787 0,-0.1261 0.0895,-0.29003 0.23022,-0.45397 l 1.27904,-1.41235 1.15113,1.5889 c 0.0767,0.11349 0.12791,0.23959 0.12791,0.34048 0,0.23959 -0.15349,0.32786 -0.76743,0.41613 v 0.37831 h 3.54293 v -0.37831 c -0.69068,-0.11349 -0.9209,-0.26481 -1.48368,-0.93316 z"
         id="path57"
         style="font-size:12.7px;font-family:'URW Bookman';-inkscape-font-specification:'URW Bookman, Normal';text-align:center;text-anchor:middle;fill:#1a1a1a;stroke:#000000;stroke-width:0.799998;stroke-linejoin:round" />
      <path
         d="m 713.54836,0.39999899 h -1.21508 l -0.23023,0.30265 -1.95692,2.78687001 -1.8674,2.44639 -0.14069,0.18916 0.19186,0.51702 h 4.00338 v 0.52963 c 0.0128,1.05927 -0.1407,1.32408 -0.81858,1.41235 l -0.42209,0.0252 v 0.37831 h 3.69642 v -0.37831 l -0.42208,-0.0252 c -0.67789,-0.0883 -0.83138,-0.35308 -0.81859,-1.41235 v -0.52963 h 1.66275 l 0.28139,-0.71879 h -1.94414 z M 712.33328,5.923299 h -3.28712 c 0.064,-0.10088 0.1279,-0.18915 0.20464,-0.27742 l 1.31741,-1.76544 c 0.60115,-0.80706 1.1895,-1.61412 1.76507,-2.40856 z m 10.38578,-5.52330001 h -0.31976 c -0.5244,0.11349 -0.69068,0.13872 -1.50926,0.22699 v 0.32786 l 0.37092,0.0126 c 0.53719,0.0252 0.60115,0.10089001 0.60115,0.64313001 v 2.83731 c 0.0128,0.59268 -0.064,0.68096 -0.6651,0.75662 l -0.33255,0.0126 v 0.32787 h 2.83946 v -0.32787 l -0.31976,-0.0126 c -0.57557,-0.0378 -0.67789,-0.15132 -0.6651,-0.7314 z m 6.12657,0 H 728.091 L 722.15628,8.987599 h 0.74185 z m 2.31506,7.11220001 -0.3965,-0.0883 -0.10233,0.21437 c -0.23022,0.52963 -0.43487,0.64313 -1.11276,0.64313 h -1.70112 c 0.85696,-0.51702 1.09997,-0.66835 1.4709,-0.95838 0.94648,-0.74401 1.40693,-1.42497 1.40693,-2.09331 0,-0.87011 -0.83137,-1.48801 -1.99529,-1.48801 -1.08717,0 -1.9825,0.65573 -1.9825,1.45018 0,0.37831 0.25581,0.66834 0.58836,0.66834 0.2686,0 0.5116,-0.21437 0.5116,-0.44136 0,-0.0883 -0.0512,-0.20176 -0.1279,-0.27742 -0.15347,-0.16394 -0.16626,-0.18916 -0.16626,-0.31526 0,-0.31526 0.52439,-0.6179 1.07438,-0.6179 0.63951,0 1.04881,0.36569 1.04881,0.94577 0,0.65573 -0.51162,1.45018 -1.43252,2.21941 -0.43488,0.36569 -0.62672,0.4918 -1.52205,1.00882 v 0.60529 h 4.02896 z"
         id="path58"
         style="font-size:12.7px;font-family:'URW Bookman';-inkscape-font-specification:'URW Bookman, Normal';text-align:center;text-anchor:middle;fill:#1a1a1a;stroke:#000000;stroke-width:0.799998;stroke-linejoin:round" />
    </g>
    <path
       d="m 431.08242,125.2091 1.11276,-1.17276 c 0.70347,-0.68095 1.0616,-0.88272 1.91855,-1.04665 v -0.37831 h -2.69876 v 0.37831 c 0.46045,0.0504 0.57556,0.11349 0.57556,0.32787 0,0.10088 -0.0384,0.20176 -0.1279,0.30264 l -1.08718,1.21059 -1.01044,-1.21059 c -0.0895,-0.1261 -0.15349,-0.23959 -0.15349,-0.31525 0,-0.17655 0.15349,-0.26482 0.52441,-0.30265 l 0.1279,-0.0126 v -0.37831 h -3.17201 v 0.37831 c 0.61394,0.0883 0.85696,0.23959 1.30462,0.76923 l 1.49647,1.85371 -1.62437,1.80327 c -0.57557,0.64312 -0.90812,0.84489 -1.52206,0.93316 v 0.37831 h 2.86504 v -0.37831 c -0.44766,-0.0757 -0.54998,-0.10088 -0.63951,-0.15133 -0.12791,-0.0757 -0.21744,-0.20176 -0.21744,-0.32786 0,-0.12611 0.0895,-0.29004 0.23023,-0.45397 l 1.27903,-1.41235 1.15114,1.58889 c 0.0767,0.11349 0.1279,0.2396 0.1279,0.34048 0,0.23959 -0.15349,0.32787 -0.76742,0.41614 v 0.37831 h 3.54293 v -0.37831 c -0.69068,-0.11349 -0.92091,-0.26482 -1.48368,-0.93316 z"
       id="path51"
       style="font-size:12.7px;font-family:'URW Bookman';-inkscape-font-specification:'URW Bookman, Normal';text-align:center;text-anchor:middle;fill:#1a1a1a;stroke:#000000;stroke-width:0.799998;stroke-linejoin:round" />
    <path
       d="m 425.95988,111.40283 -0.48603,-0.1261 -0.12791,0.29004 c -0.3965,0.95838 -0.75463,1.17275 -1.89297,1.16014 h -2.90341 c 1.52205,-0.94577 1.9953,-1.27364 2.62202,-1.79066 1.49648,-1.2358 2.23832,-2.38334 2.23832,-3.46782 0,-1.43758 -1.30462,-2.45901 -3.14643,-2.45901 -1.67554,0 -3.08248,1.08449 -3.08248,2.37073 0,0.6053 0.37092,1.05927 0.86975,1.05927 0.38371,0 0.72905,-0.31526 0.72905,-0.66835 0,-0.13871 -0.064,-0.29003 -0.15349,-0.41614 -0.23022,-0.29003 -0.2686,-0.36569 -0.2686,-0.58007 0,-0.60529 0.86975,-1.16015 1.80345,-1.16015 1.0488,0 1.73948,0.66835 1.73948,1.67717 0,0.95838 -0.47324,1.91676 -1.53484,3.08952 -0.84416,0.92055 -1.62437,1.52584 -3.23596,2.49684 v 0.88272 h 6.21611 z m 7.53352,-6.22947 h -0.31976 c -0.5244,0.11349 -0.69068,0.13871 -1.50926,0.22698 v 0.32787 l 0.37092,0.0126 c 0.5372,0.0252 0.60115,0.10088 0.60115,0.64312 v 2.83731 c 0.0128,0.59269 -0.064,0.68096 -0.6651,0.75662 l -0.33255,0.0126 v 0.32787 h 2.83946 v -0.32787 l -0.31976,-0.0126 c -0.57556,-0.0378 -0.67789,-0.15132 -0.6651,-0.73139 z m 6.12659,0 h -0.75464 l -5.93472,8.5876 h 0.74184 z m 2.31505,7.11219 -0.3965,-0.0883 -0.10232,0.21438 c -0.23023,0.52963 -0.43488,0.64312 -1.11276,0.64312 h -1.70112 c 0.85695,-0.51702 1.09997,-0.66835 1.47089,-0.95838 0.94649,-0.74401 1.40694,-1.42496 1.40694,-2.09331 0,-0.87011 -0.83138,-1.48801 -1.9953,-1.48801 -1.08718,0 -1.9825,0.65573 -1.9825,1.45018 0,0.37831 0.2558,0.66835 0.58835,0.66835 0.2686,0 0.51162,-0.21438 0.51162,-0.44136 0,-0.0883 -0.0512,-0.20177 -0.12791,-0.27743 -0.15348,-0.16393 -0.16627,-0.18915 -0.16627,-0.31526 0,-0.31525 0.5244,-0.6179 1.07439,-0.6179 0.63952,0 1.04881,0.3657 1.04881,0.94577 0,0.65573 -0.51162,1.45018 -1.43252,2.21941 -0.43487,0.3657 -0.62673,0.4918 -1.52205,1.00882 v 0.6053 h 4.02896 z"
       id="path52"
       style="font-size:12.7px;font-family:'URW Bookman';-inkscape-font-specification:'URW Bookman, Normal';text-align:center;text-anchor:middle;fill:#1a1a1a;stroke:#000000;stroke-width:0.799998;stroke-linejoin:round" />
    <path
       d="m 425.95988,148.04225 -0.48603,-0.1261 -0.12791,0.29004 c -0.3965,0.95838 -0.75463,1.17275 -1.89297,1.16014 h -2.90341 c 1.52205,-0.94577 1.9953,-1.27364 2.62202,-1.79066 1.49648,-1.2358 2.23832,-2.38334 2.23832,-3.46782 0,-1.43758 -1.30462,-2.45901 -3.14643,-2.45901 -1.67554,0 -3.08248,1.08449 -3.08248,2.37073 0,0.6053 0.37092,1.05927 0.86975,1.05927 0.38371,0 0.72905,-0.31526 0.72905,-0.66835 0,-0.13871 -0.064,-0.29003 -0.15349,-0.41614 -0.23022,-0.29003 -0.2686,-0.36569 -0.2686,-0.58007 0,-0.60529 0.86975,-1.16015 1.80345,-1.16015 1.0488,0 1.73948,0.66835 1.73948,1.67717 0,0.95838 -0.47324,1.91676 -1.53484,3.08952 -0.84416,0.92055 -1.62437,1.52584 -3.23596,2.49684 v 0.88272 h 6.21611 z m 7.53352,-6.22947 h -0.31976 c -0.5244,0.11349 -0.69068,0.13871 -1.50926,0.22698 v 0.32787 l 0.37092,0.0126 c 0.5372,0.0252 0.60115,0.10088 0.60115,0.64312 v 2.83731 c 0.0128,0.59269 -0.064,0.68096 -0.6651,0.75662 l -0.33255,0.0126 v 0.32787 h 2.83946 v -0.32787 l -0.31976,-0.0126 c -0.57556,-0.0378 -0.67789,-0.15132 -0.6651,-0.73139 z m 6.12659,0 h -0.75464 l -5.93472,8.5876 h 0.74184 z m 2.31505,7.11219 -0.3965,-0.0883 -0.10232,0.21438 c -0.23023,0.52963 -0.43488,0.64312 -1.11276,0.64312 h -1.70112 c 0.85695,-0.51702 1.09997,-0.66835 1.47089,-0.95838 0.94649,-0.74401 1.40694,-1.42496 1.40694,-2.09331 0,-0.87011 -0.83138,-1.48801 -1.9953,-1.48801 -1.08718,0 -1.9825,0.65573 -1.9825,1.45018 0,0.37831 0.2558,0.66835 0.58835,0.66835 0.2686,0 0.51162,-0.21438 0.51162,-0.44136 0,-0.0883 -0.0512,-0.20177 -0.12791,-0.27743 -0.15348,-0.16393 -0.16627,-0.18915 -0.16627,-0.31526 0,-0.31525 0.5244,-0.6179 1.07439,-0.6179 0.63952,0 1.04881,0.3657 1.04881,0.94577 0,0.65573 -0.51162,1.45018 -1.43252,2.21941 -0.43487,0.3657 -0.62673,0.4918 -1.52205,1.00882 v 0.6053 h 4.02896 z"
       id="path52-1"
       style="font-size:12.7px;font-family:'URW Bookman';-inkscape-font-specification:'URW Bookman, Normal';text-align:center;text-anchor:middle;display:inline;fill:#1a1a1a;stroke:#000000;stroke-width:0.799998;stroke-linejoin:round" />
    <path
       d="m 238.55943,162.41051 c 0.51161,-0.0504 0.72905,-0.0631 0.89532,-0.0631 0.57557,0 1.18951,0.17655 1.53485,0.44136 0.40929,0.31526 0.66509,0.93317 0.66509,1.5889 0,1.28625 -0.80579,2.04287 -2.18715,2.04287 -0.56277,0 -1.04881,-0.1135 -1.40694,-0.34048 -0.24301,-0.15133 -0.43487,-0.42875 -0.43487,-0.63052 0,-0.0378 0.0128,-0.0883 0.0256,-0.13871 0.0895,-0.27743 0.0895,-0.27743 0.0895,-0.42875 0,-0.41614 -0.29417,-0.70617 -0.71626,-0.70617 -0.43487,0 -0.78021,0.39091 -0.78021,0.8701 0,0.46659 0.30697,0.94578 0.8058,1.29886 0.63951,0.44136 1.39414,0.64313 2.36621,0.64313 2.14878,0 3.68363,-1.0971 3.68363,-2.63555 0,-0.74401 -0.39651,-1.41235 -1.04881,-1.79066 -0.4093,-0.2396 -0.72905,-0.35309 -1.52206,-0.50441 0.72905,-0.16394 1.04881,-0.29004 1.39415,-0.55485 0.44766,-0.34048 0.72905,-0.87011 0.72905,-1.37452 0,-1.18537 -1.29182,-2.05548 -3.05689,-2.05548 -0.76742,0 -1.40694,0.16393 -1.91856,0.51702 -0.60114,0.39092 -0.95927,0.97099 -0.95927,1.52585 0,0.46658 0.30696,0.80705 0.74184,0.80705 0.38371,0 0.70347,-0.27742 0.70347,-0.60529 0,-0.0883 -0.0256,-0.18915 -0.064,-0.30265 -0.15348,-0.34047 -0.15348,-0.34047 -0.15348,-0.44136 0,-0.51702 0.70347,-0.93316 1.57321,-0.93316 1.07439,0 1.75228,0.61791 1.75228,1.57629 0,0.44136 -0.19185,0.90794 -0.47324,1.14753 -0.33255,0.31526 -0.97207,0.50441 -1.62438,0.50441 -0.14069,0 -0.30696,-0.0126 -0.61393,-0.0378 z m 12.07411,-4.17401 h -0.31976 c -0.52441,0.1135 -0.69068,0.13872 -1.50926,0.22699 v 0.32787 l 0.37092,0.0126 c 0.53719,0.0252 0.60114,0.10088 0.60114,0.64312 v 2.83731 c 0.0128,0.59269 -0.064,0.68096 -0.6651,0.75662 l -0.33255,0.0126 v 0.32787 h 2.83946 v -0.32787 l -0.31975,-0.0126 c -0.57557,-0.0378 -0.67789,-0.15132 -0.6651,-0.7314 z m 6.12658,0 h -0.75463 l -5.93473,8.5876 h 0.74184 z m 2.31505,7.1122 -0.3965,-0.0883 -0.10232,0.21437 c -0.23023,0.52964 -0.43487,0.64313 -1.11276,0.64313 h -1.70112 c 0.85695,-0.51702 1.09997,-0.66835 1.47089,-0.95838 0.94649,-0.74401 1.40694,-1.42496 1.40694,-2.09331 0,-0.87011 -0.83137,-1.48801 -1.99529,-1.48801 -1.08718,0 -1.98251,0.65573 -1.98251,1.45018 0,0.37831 0.25581,0.66834 0.58836,0.66834 0.26859,0 0.51161,-0.21437 0.51161,-0.44135 0,-0.0883 -0.0512,-0.20177 -0.1279,-0.27743 -0.15349,-0.16393 -0.16628,-0.18916 -0.16628,-0.31526 0,-0.31526 0.52441,-0.6179 1.07439,-0.6179 0.63952,0 1.04881,0.3657 1.04881,0.94577 0,0.65573 -0.51161,1.45018 -1.43252,2.21941 -0.43487,0.3657 -0.62673,0.4918 -1.52205,1.00882 v 0.60529 h 4.02896 z"
       id="path62"
       style="font-size:12.7px;font-family:'URW Bookman';-inkscape-font-specification:'URW Bookman, Normal';text-align:center;text-anchor:middle;fill:#1a1a1a;stroke:#000000;stroke-width:0.799998;stroke-linejoin:round" />
    <path
       d="m 248.24174,179.06869 1.11276,-1.17276 c 0.70347,-0.68096 1.0616,-0.88272 1.91855,-1.04665 v -0.37831 h -2.69876 v 0.37831 c 0.46045,0.0504 0.57557,0.11349 0.57557,0.32786 0,0.10089 -0.0384,0.20177 -0.12791,0.30265 l -1.08718,1.21059 -1.01044,-1.21059 c -0.0895,-0.1261 -0.15348,-0.2396 -0.15348,-0.31526 0,-0.17654 0.15348,-0.26481 0.5244,-0.30264 l 0.12791,-0.0126 v -0.37831 h -3.17201 v 0.37831 c 0.61393,0.0883 0.85695,0.23959 1.30461,0.76922 l 1.49648,1.85371 -1.62438,1.80327 c -0.57557,0.64313 -0.90811,0.84489 -1.52205,0.93316 v 0.37831 h 2.86504 v -0.37831 c -0.44766,-0.0757 -0.54999,-0.10088 -0.63952,-0.15132 -0.1279,-0.0757 -0.21744,-0.20176 -0.21744,-0.32787 0,-0.1261 0.0895,-0.29003 0.23023,-0.45397 l 1.27904,-1.41235 1.15113,1.5889 c 0.0767,0.11349 0.1279,0.23959 0.1279,0.34048 0,0.23959 -0.15348,0.32786 -0.76742,0.41613 v 0.37831 h 3.54293 v -0.37831 c -0.69068,-0.11349 -0.92091,-0.26481 -1.48368,-0.93316 z"
       id="path63"
       style="font-size:12.7px;font-family:'URW Bookman';-inkscape-font-specification:'URW Bookman, Normal';text-align:center;text-anchor:middle;fill:#1a1a1a;stroke:#000000;stroke-width:0.799998;stroke-linejoin:round" />
    <path
       d="m 238.55943,193.9362 c 0.51161,-0.0504 0.72905,-0.063 0.89532,-0.063 0.57557,0 1.18951,0.17655 1.53485,0.44136 0.40929,0.31526 0.66509,0.93316 0.66509,1.5889 0,1.28625 -0.80579,2.04286 -2.18715,2.04286 -0.56277,0 -1.04881,-0.11349 -1.40694,-0.34047 -0.24301,-0.15133 -0.43487,-0.42875 -0.43487,-0.63052 0,-0.0378 0.0128,-0.0883 0.0256,-0.13871 0.0895,-0.27743 0.0895,-0.27743 0.0895,-0.42875 0,-0.41614 -0.29417,-0.70618 -0.71626,-0.70618 -0.43487,0 -0.78021,0.39092 -0.78021,0.87011 0,0.46658 0.30697,0.94577 0.8058,1.29886 0.63951,0.44136 1.39414,0.64313 2.36621,0.64313 2.14878,0 3.68363,-1.0971 3.68363,-2.63555 0,-0.74401 -0.39651,-1.41235 -1.04881,-1.79066 -0.4093,-0.2396 -0.72905,-0.35309 -1.52206,-0.50441 0.72905,-0.16394 1.04881,-0.29004 1.39415,-0.55486 0.44766,-0.34047 0.72905,-0.87011 0.72905,-1.37452 0,-1.18536 -1.29182,-2.05547 -3.05689,-2.05547 -0.76742,0 -1.40694,0.16393 -1.91856,0.51702 -0.60114,0.39092 -0.95927,0.97099 -0.95927,1.52584 0,0.46658 0.30696,0.80706 0.74184,0.80706 0.38371,0 0.70347,-0.27742 0.70347,-0.60529 0,-0.0883 -0.0256,-0.18916 -0.064,-0.30265 -0.15348,-0.34048 -0.15348,-0.34048 -0.15348,-0.44136 0,-0.51702 0.70347,-0.93316 1.57321,-0.93316 1.07439,0 1.75228,0.6179 1.75228,1.57629 0,0.44136 -0.19185,0.90794 -0.47324,1.14753 -0.33255,0.31526 -0.97207,0.50441 -1.62438,0.50441 -0.14069,0 -0.30696,-0.0126 -0.61393,-0.0378 z m 12.07411,-4.174 h -0.31976 c -0.52441,0.11349 -0.69068,0.13871 -1.50926,0.22699 v 0.32786 l 0.37092,0.0126 c 0.53719,0.0252 0.60114,0.10089 0.60114,0.64313 v 2.83731 c 0.0128,0.59268 -0.064,0.68096 -0.6651,0.75662 l -0.33255,0.0126 v 0.32787 h 2.83946 v -0.32787 l -0.31975,-0.0126 c -0.57557,-0.0378 -0.67789,-0.15133 -0.6651,-0.7314 z m 6.12658,0 h -0.75463 l -5.93473,8.5876 h 0.74184 z m 2.31505,7.1122 -0.3965,-0.0883 -0.10232,0.21437 c -0.23023,0.52963 -0.43487,0.64313 -1.11276,0.64313 h -1.70112 c 0.85695,-0.51703 1.09997,-0.66835 1.47089,-0.95838 0.94649,-0.74401 1.40694,-1.42497 1.40694,-2.09331 0,-0.87011 -0.83137,-1.48801 -1.99529,-1.48801 -1.08718,0 -1.98251,0.65573 -1.98251,1.45018 0,0.37831 0.25581,0.66834 0.58836,0.66834 0.26859,0 0.51161,-0.21437 0.51161,-0.44136 0,-0.0883 -0.0512,-0.20176 -0.1279,-0.27742 -0.15349,-0.16394 -0.16628,-0.18916 -0.16628,-0.31526 0,-0.31526 0.52441,-0.6179 1.07439,-0.6179 0.63952,0 1.04881,0.36569 1.04881,0.94577 0,0.65573 -0.51161,1.45018 -1.43252,2.21941 -0.43487,0.36569 -0.62673,0.4918 -1.52205,1.00882 v 0.60529 h 4.02896 z"
       id="path64"
       style="font-size:12.7px;font-family:'URW Bookman';-inkscape-font-specification:'URW Bookman, Normal';text-align:center;text-anchor:middle;fill:#1a1a1a;stroke:#000000;stroke-width:0.799998;stroke-linejoin:round" />
    <text
       xml:space="preserve"
       style="font-style:normal;font-variant:normal;font-weight:normal;font-stretch:normal;font-size:12.7px;font-family:'URW Bookman';-inkscape-font-specification:'URW Bookman';text-align:center;writing-mode:lr-tb;direction:ltr;text-anchor:middle;opacity:1;fill:#000000;stroke:#1a1a1a;stroke-width:0.2;stroke-linejoin:round"
       x="430.31653"
       y="57.249077"
       id="text9"><tspan
         sodipodi:role="line"
         id="tspan9"
         style="font-style:normal;font-variant:normal;font-weight:600;font-stretch:normal;font-size:12.7px;font-family:'URW Bookman';-inkscape-font-specification:'URW Bookman Semi-Bold';stroke-width:0.2"
         x="432.47552"
         y="57.249077">6 ½ x 6 ½ </tspan></text>
    <text
       xml:space="preserve"
       transform="scale(0.26458333)"
       id="text10"
       style="font-style:normal;font-variant:normal;font-weight:600;font-stretch:normal;font-size:85.3333px;font-family:'URW Bookman';-inkscape-font-specification:'URW Bookman Semi-Bold';text-align:center;writing-mode:lr-tb;direction:ltr;white-space:pre;shape-inside:url(#rect10);display:inline;opacity:1;fill:#000000;stroke:#1a1a1a;stroke-width:0.755906;stroke-linejoin:round" />
    <g
       id="g10"
       transform="translate(39.692701,-179.12604)">
      <path
         id="rect5-5-3-0-2"
         style="fill:none;stroke:#000000;stroke-width:0.799998;stroke-linejoin:round"
         d="M -19.803404,285.93814 H 119.09661 V 424.83815 H -19.803404 Z" />
      <path
         style="opacity:1;fill:#000000;stroke:#1a1a1a;stroke-width:0.2;stroke-linejoin:round"
         d="M -19.430985,424.60301 C 118.74491,286.42712 118.74491,286.42712 118.74491,286.42712 l -0.71967,0.35983"
         id="path10" />
    </g>
  </g>
</svg>
